<?xml version="1.0" encoding="utf-8"?>
<!-- Generator: Adobe Illustrator 27.9.0, SVG Export Plug-In . SVG Version: 6.00 Build 0)  -->
<svg version="1.1" id="Layer_1" xmlns="http://www.w3.org/2000/svg" xmlns:xlink="http://www.w3.org/1999/xlink" x="0px" y="0px"
	 viewBox="0 0 900 900" style="enable-background:new 0 0 900 900;" xml:space="preserve">
<style type="text/css">
	.st0{fill:#FFFFFF;}
</style>
<path class="st0" d="M283.7,161c-58,10.4-104.6,53.3-119.3,109.6c-5.3,20.4-5.7,32.3-5.1,190.3c0.4,145.1,0.5,148.4,2.9,159.6
	c13.4,60.4,56.3,103.4,117.2,117.6c8,1.8,18.1,2.2,83.3,2.5c67.5,0.5,74.5,0.4,76.3-1.4c1.8-1.8,1.9-25.1,1.9-288.7
	c0-195.4-0.4-287.5-1.2-289.2c-1.2-2.2-3.3-2.3-73.9-2.2C308.5,159.3,291.2,159.6,283.7,161z M392.7,450.1v244.1l-49-0.6
	c-45.2-0.5-50-0.7-59-3c-38.8-10-67.6-39.9-75.7-78.8c-2.7-12.2-2.7-311.9-0.1-323.9c7.2-33.9,30.7-61.9,62.4-74.6
	c15.9-6.4,23.3-7.1,74.8-7.2l46.6-0.1V450.1z"/>
<path class="st0" d="M294,279.6c-7.6,1.4-19.2,7.2-25.3,12.7c-12.7,11-18.9,26.5-18,44.8c0.5,9.5,1.1,12,4.9,19.8
	c5.7,11.7,14.2,20.2,25.9,26c8.1,4,10.1,4.5,20.6,4.8c9.5,0.4,12.9,0,19.3-2.2c26.1-8.8,41.9-34.2,37.5-60.2
	C353.8,294.3,324.4,273.6,294,279.6z"/>
<path class="st0" d="M499.6,159.9c-0.5,0.4-0.8,131-0.8,290.3c0,262.8,0.1,289.4,1.9,290.1c3.3,1.2,96.8,0.7,108.3-0.5
	c48.9-5.5,92.1-35.3,115.5-79.5c3-5.7,7-15.2,9-21.1c7.6-22.7,7.3-16.6,7.3-189.8c0-138.2-0.2-158.8-1.9-167.6
	c-11.9-62.8-59.8-110.1-122.7-121c-8.4-1.4-21.4-1.8-63.4-1.8C524,159,499.9,159.4,499.6,159.9z M628.3,422.3
	c18.8,4.9,34.2,19.3,40.5,37.6c4,11.3,3.9,28-0.1,38.3c-7.3,19-21.8,32.4-40.4,37.4c-30.1,7.8-62.2-10.4-71-40.2
	c-2.7-9.2-2.5-24.6,0.5-34C566.8,431.8,598.1,414.5,628.3,422.3z"/>
</svg>
