<?xml version="1.0" encoding="UTF-8"?>
<svg id="svg2" xmlns="http://www.w3.org/2000/svg" xmlns:xlink="http://www.w3.org/1999/xlink" viewBox="0 0 1178.39 1035.53">
  <defs>
    <style>
      .cls-1 {
        fill: none;
      }

      .cls-1, .cls-2 {
        stroke-width: 0px;
      }

      .cls-2 {
        fill: #fff;
        fill-rule: evenodd;
      }

      .cls-3 {
        clip-path: url(#clippath);
      }
    </style>
    <clipPath id="clippath">
      <rect class="cls-1" width="1178.39" height="1035.53"/>
    </clipPath>
  </defs>
  <g id="g14">
    <g class="cls-3">
      <g>
        <path class="cls-2" d="m560.82,372.82v-71.09c0-11.31-5.22-16.56-16.07-16.56h-17.69v104.22h17.69c10.85,0,16.07-5.25,16.07-16.57Z"/>
        <polygon class="cls-2" points="496.13 650.15 497.3 650.15 498.47 650.15 499.64 650.15 500.81 650.15 501.97 650.15 503.15 650.15 504.2 650.15 505.36 650.15 506.54 650.15 507.7 650.15 508.87 650.15 510.04 650.15 511.21 650.15 512.38 650.15 513.55 650.15 513.08 649.1 512.72 648.03 512.26 646.86 511.79 645.8 511.44 644.74 510.98 643.68 510.51 642.51 510.16 641.45 509.69 640.39 509.22 639.33 508.87 638.27 508.4 637.1 508.06 636.04 507.59 634.98 507.12 633.92 506.77 632.86 506.3 631.68 505.83 630.62 505.48 629.57 505.01 628.51 504.55 627.33 504.2 626.27 503.73 625.21 503.26 626.27 502.91 627.33 502.44 628.51 501.97 629.57 501.63 630.62 501.16 631.68 500.69 632.86 500.23 633.92 499.87 634.98 499.4 636.04 498.93 637.1 498.59 638.27 498.12 639.33 497.65 640.39 497.3 641.45 496.84 642.51 496.37 643.68 495.9 644.74 495.55 645.8 495.08 646.86 494.61 648.03 494.26 649.1 493.8 650.15 494.96 650.15 496.13 650.15"/>
        <path class="cls-2" d="m850.85,149.2H330.76c-42.16,0-57.71,15.56-57.71,57.73v508.9c0,4.77.19,9.21.61,13.31.96,9.21,1.14,18.13,9.7,28.28.84,1,9.58,7.5,9.58,7.5,4.7,2.31,7.91,4,13.22,6.14l256.1,107.3c13.29,6.09,18.85,8.47,28.51,8.28h0s.02,0,.04,0h.04c9.66.19,15.22-2.19,28.51-8.28l256.1-107.3c5.3-2.13,8.51-3.83,13.22-6.14,0,0,8.74-6.5,9.58-7.5,8.56-10.16,8.74-19.08,9.7-28.28.42-4.11.62-8.54.62-13.31V206.93c0-42.17-15.56-57.73-57.71-57.73Zm-227.61,98h43.02v282.75h-43.02V247.2Zm-18.73,384.35l.58.94.59-.94.59-1.05.7-.94.59-1.06.58-.93.59-1.06.7-.94.59-1.06.59-.94.58-.93.7-1.06.58-.94.59-1.05.59-.94.7-1.06.59-.94.59-1.05.58-.94.59-.94.7-1.05.59-.94.59-1.06.58-.94.7-1.05.58-.94.59-.94.59-1.06.7-.93.59-1.06.58-.94.59-1.06.7-.93.58-1.06.59-.94h23.95v85.44h-22.55v-50.53l-.59.94-.7,1.06-.59.94-.7.94-.59,1.06-.71.94-.58.94-.59,1.06-.7.94-.59.94-.7.94-.58,1.06-.7.94-.58.94-.59,1.06-.7.95-.58.94-.7,1.06-.58.94-.7.94-.58,1.06-.59.94-.7.94-.58,1.06-.7.95-.58.94-.7.94-.59,1.06-.58.95-.7.94-.58,1.06-.7.94-.59.94-.7,1.06-.59.94h-.46l-.7-1.06-.59-.95-.7-1.06-.59-.94-.7-1.06-.59-.95-.7-1.06-.59-.94-.7-1.06-.58-.94-.7-1.06-.58-.94-.7-1.06-.59-.94-.7-1.06-.59-.94-.7-1.06-.7-.94-.59-1.06-.7-.94-.59-1.06-.7-.94-.59-1.06-.7-.94-.59-1.06-.7-.94-.58-1.06-.7-.95-.58-1.06-.7-.94-.59-1.06-.7-.94-.59-1.06-.7-.94v50.29h-22.21v-85.44h23.96l.58.94.59,1.06.7.93.59,1.06.59.94.58,1.06.59.93.7,1.06.59.94.59.94.58,1.05.59.94.7,1.06.59.94.59,1.05.58.94.7.94.59,1.05.58.94.59,1.06.58.94.7,1.05.59.94.58,1.06.59.93.58.94.7,1.06.59.94.58,1.06.59.93.58,1.06.71.94.59,1.05Zm-120.46-384.35h67.53c34.97,0,52.26,17.37,52.26,52.51v75.13c0,35.14-17.28,52.5-52.26,52.5h-24.52v102.6h-43.01V247.2Zm-117.24,0h95.68v39.18h-52.67v79.98h50.65v39.18h-50.65v85.23h53.47v39.18h-96.48V247.2Zm81.41,388.51v36.98l-.81.7-.94.7-.82.59-.94.7-.93.59-.93.7-.94.59-.93.59-1.06.59-1.05.59-1.05.59-1.06.46-1.05.59-1.17.47-1.05.47-1.17.47-1.05.47-1.05.35-1.06.35-1.05.35-1.17.35-1.05.35-1.17.23-1.05.23-1.17.23-1.17.23-1.17.12-1.28.12-1.17.12-1.28.12-1.17.12-1.28.12h-5.03l-1.17-.12-1.28-.12-1.17-.12-1.17-.12-1.17-.12-1.17-.23-1.17-.24-1.05-.23-1.17-.23-1.05-.35-1.17-.23-1.06-.35-1.05-.47-1.05-.35-1.17-.47-1.06-.47-1.05-.47-1.05-.47-1.06-.59-.93-.58-1.05-.59-.94-.59-.93-.59-.94-.71-.93-.7-.93-.7-.82-.7-.81-.7-.82-.82-.81-.7-.82-.82-.81-.82-.7-.82-.7-.94-.7-.82-.59-.94-.7-.94-.59-.94-.58-.94-.59-1.06-.59-.94-.46-1.06-.47-1.06-.47-1.06-.46-1.06-.35-.94-.47-1.06-.23-1.06-.35-1.06-.23-1.17-.35-1.06-.23-1.17-.12-1.06-.24-1.17-.12-1.06-.12-1.17-.11-1.17-.12-1.17v-3.87l.12-1.29v-1.17l.11-1.17.12-1.29.23-1.17.12-1.17.23-1.06.35-1.17.24-1.17.34-1.06.35-1.17.35-1.06.47-1.17.46-1.06.47-1.06.47-1.06.46-1.06.59-1.06.59-.94.58-.94.59-.94.59-.94.7-.94.7-.94.7-.94.7-.82.81-.82.7-.82.82-.82.82-.82.81-.7.94-.82.82-.7.93-.7.94-.59.93-.7.94-.59.93-.59,1.05-.59,1.06-.59,1.05-.59,1.05-.47,1.06-.47,1.17-.59.93-.35,1.17-.35,1.06-.47,1.05-.24,1.05-.35,1.17-.23,1.05-.35,1.17-.23,1.17-.12,1.17-.23,1.17-.12,1.17-.12,1.17-.12,1.17-.12h5.02l1.29.12,1.28.12h1.17l1.17.12,1.28.24,1.06.12,1.17.24,1.17.23,1.06.23,1.05.23,1.05.24,1.06.35,1.05.23.93.35,1.06.35,1.05.47,1.05.47,1.06.47,1.05.59,1.05.47.94.59,1.05.59.93.59,1.06.59.93.7.93.59.94.7.93.7.94.82.93.7-.7.94-.81.82-.7.94-.81.94-.7.94-.7.82-.82.94-.7.94-.7.82-.82.94-.7.94-.82.94-.7.82-.7.94-.82.94-.7.94-.82.82-.7.94-.94-.7-.93-.82-.94-.59-.93-.7-.93-.59-.94-.59-.93-.59-1.05-.59-.94-.47-.93-.47-.94-.35-1.05-.35-1.05-.35-1.06-.23-1.17-.24-1.17-.23-1.17-.12-1.28-.12-1.29-.12h-2.45l-1.17.12-1.06.12-1.17.23-1.05.24-1.06.35-1.05.35-1.05.47-1.05.47-.94.59-.93.59-.94.59-.81.7-.82.7-.81.7-.7.82-.81.82-.7.94-.58.82-.59.94-.58,1.06-.59.94-.47,1.06-.35,1.06-.46,1.06-.35,1.17-.23,1.17-.23,1.06-.24,1.29-.12,1.17-.11,1.17v2.7l.11,1.17.12,1.06.12,1.17.23,1.06.24,1.06.23,1.06.35,1.06.35.94.47,1.17.47,1.06.58,1.06.59.94.59.94.7.94.7.82.81.82.71.82.81.7.94.7.93.7.93.59.94.59,1.05.47,1.05.47,1.06.47,1.17.35,1.17.35,1.17.24,1.17.23,1.17.12,1.28.12h2.69l1.29-.12,1.28-.12,1.17-.12,1.17-.24,1.17-.23,1.17-.35,1.05-.24,1.05-.47.94-.47,1.05-.47.82-.47.93-.59v-10.68h-17.06v-17.13h38.56v1.17Zm18.13,48.59h-9.47l.46-1.06.47-1.06.47-1.06.46-1.17.35-1.05.47-1.06.47-1.06.46-1.06.47-1.06.47-1.17.46-1.06.47-1.06.35-1.06.47-1.06.46-1.06.47-1.17.47-1.06.46-1.06.47-1.06.47-1.06.35-1.06.46-1.17.47-1.06.47-1.06.46-1.06.47-1.06.47-1.06.46-1.17.35-1.06.47-1.06.47-1.06.46-1.06.47-1.06.47-1.17.46-1.06.47-1.06.35-1.06.47-1.06.46-1.06.47-1.17.47-1.06.46-1.06.47-1.06.47-1.06.35-1.06.46-1.05.47-1.17.47-1.06.46-1.06.47-1.06.47-1.06.46-1.06.35-1.17.47-1.06.47-1.06.46-1.06.47-1.06.47-1.06.46-1.17.47-1.06.35-1.06.47-1.06.46-1.06.47-1.06.47-1.17.46-1.06.47-1.06.47-1.06.34-1.06.47-1.06.47-1.17.47-1.06.46-1.06.47-1.06.47-1.06.46-1.06.35-1.17.47-1.06.47-1.06.46-1.06h21.62l.47,1.06.47,1.06.46,1.06.47,1.17.35,1.06.46,1.06.47,1.06.47,1.06.47,1.06.46,1.17.47,1.06.47,1.06.34,1.06.47,1.06.47,1.06.47,1.17.46,1.06.47,1.06.47,1.06.46,1.06.35,1.06.47,1.17.46,1.06.47,1.06.47,1.06.47,1.06.46,1.06.47,1.17.35,1.06.46,1.06.47,1.06.47,1.06.47,1.06.46,1.17.47,1.05.47,1.06.35,1.06.47,1.06.47,1.06.46,1.06.47,1.17.47,1.06.47,1.06.46,1.06.35,1.06.47,1.06.46,1.17.47,1.06.47,1.06.47,1.06.46,1.06.47,1.06.35,1.17.46,1.06.47,1.06.47,1.06.46,1.06.47,1.06.47,1.17.47,1.06.34,1.06.47,1.06.47,1.06.46,1.06.47,1.17.47,1.06.47,1.06.46,1.06.35,1.06.47,1.06.46,1.17.47,1.06.47,1.06.46,1.06.47,1.06.47,1.05.35,1.17.46,1.06.47,1.06.47,1.06h-24.08l-.46-1.06-.35-1.06-.47-1.06-.47-1.17-.35-1.05-.47-1.06-.47-1.06-.35-1.06-.47-1.06-.47-1.06-.35-1.06-.46-1.17-.47-1.06-.35-1.06-.47-1.06h-33.54l-.46,1.06-.35,1.06-.47,1.06-.47,1.17-.35,1.06-.47,1.06-.47,1.06-.35,1.06-.46,1.06-.47,1.06-.35,1.05-.46,1.17-.47,1.06-.35,1.06-.47,1.06h-14.13Zm122.48,142.75l-120.55-41.45h246.22l-125.68,41.45Zm146.41-160.94v18.19h-68.13v-85.44h67.54v19.37h-45.23v13.97h40.67v18.19h-40.67v14.55h45.81v1.17Zm-46.24-186.25v-182.57c0-35.14,17.29-52.51,52.26-52.51h20.91c34.97,0,51.85,16.97,51.85,52.1v57.77h-42.2v-55.34c0-11.31-5.23-16.56-16.08-16.56h-7.24c-11.25,0-16.48,5.25-16.48,16.56v178.54c0,11.31,5.23,16.56,16.48,16.56h8.04c10.85,0,16.08-5.25,16.08-16.56v-63.82h42.21v65.84c0,35.15-17.28,52.51-52.26,52.51h-21.31c-34.97,0-52.26-17.37-52.26-52.51Zm127.15,178.16v1.53l-.12,1.29-.12,1.17-.12,1.29-.24,1.17-.35,1.17-.23,1.06-.35,1.17-.47,1.06-.47.94-.46,1.06-.59.94-.59.94-.7.94-.59.94-.7.82-.82.82-.7.7-.94.82-.82.7-.94.7-.93.58-.93.7-1.06.59-1.05.47-1.05.59-1.17.47-1.17.47-1.17.35-1.17.35-1.06.35-1.17.24-1.05.23-1.05.23-1.17.24-1.17.12-1.05.12-1.17.12-1.28.12-1.17.12h-4.91l-1.17-.12h-1.28l-1.17-.12-1.17-.12-1.28-.12-1.17-.23-1.17-.12-1.17-.23-1.17-.23-1.17-.24-1.17-.23-1.17-.35-1.05-.24-1.17-.35-1.17-.35-1.06-.47-1.17-.35-1.05-.35-1.17-.47-1.06-.47-1.05-.47-1.05-.58-1.06-.47-1.05-.59-.93-.59-1.06-.59-.93-.59-.94-.59-.93-.7-.93-.7-.94-.7-.93-.7-.82-.7-.93-.82.7-.94.81-.82.7-.94.82-.94.7-.82.7-.94.82-.94.7-.82.82-.94.7-.82.82-.94.7-.94.7-.82.81-.94.7-.94.81-.82.7-.94.93.7,1.05.7.94.7,1.05.7.94.59,1.05.7.93.59,1.06.47.93.59,1.05.47,1.06.47,1.05.47,1.05.35,1.06.47,1.17.35,1.17.35,1.05.35,1.17.24,1.17.23,1.17.23,1.28.12,1.17.23h1.17l1.28.12h2.57l1.28-.12,1.17-.23,1.05-.24,1.05-.23.94-.35.82-.47.94-.7.7-.82.47-.94.35-1.06.12-1.17v-.23l-.12-1.41-.47-1.17-.59-.82-.81-.7-.94-.7-.93-.47-1.05-.47-1.17-.47-1.4-.59-.82-.24-.93-.23-1.06-.35-1.05-.23-1.17-.35-1.17-.23-1.28-.35-1.17-.23-1.28-.35-1.17-.23-1.17-.35-1.17-.24-1.17-.35-1.06-.35-1.17-.24-1.05-.35-1.05-.35-1.06-.35-1.28-.47-1.17-.47-1.17-.47-1.17-.47-1.05-.59-1.17-.59-.94-.59-1.05-.59-.93-.7-.94-.59-.81-.71-.82-.82-.82-.82-.7-.82-.7-.82-.59-.82-.58-.94-.59-1.06-.47-.81-.35-.94-.34-1.06-.35-.94-.24-1.17-.23-1.06-.12-1.17-.12-1.17-.12-1.29v-2.7l.12-1.17.12-1.06.12-1.17.23-1.06.24-1.06.35-1.06.23-1.06.46-1.06.47-1.06.47-1.06.58-1.06.59-1.06.7-.94.71-.94.81-.94.82-.82.82-.94.94-.82.81-.59.94-.7.93-.7.93-.59,1.06-.59,1.05-.47,1.05-.59,1.06-.47,1.17-.35,1.17-.47,1.06-.35.93-.24,1.05-.23,1.06-.23,1.17-.23,1.05-.24,1.17-.12,1.17-.12,1.17-.12,1.17-.12h5.03l1.28.12,1.28.12h1.17l1.29.12,1.17.23,1.28.12,1.17.23,1.06.23,1.17.23,1.17.24,1.05.23,1.17.35,1.05.35,1.05.24,1.17.47,1.05.35,1.05.47,1.05.47,1.17.47,1.05.59.93.47,1.06.59,1.05.59.93.59,1.06.7.93.59.94.71.93.7.93.7-.7.94-.59.94-.7.94-.7.94-.7,1.06-.59.94-.7.94-.7.94-.59.94-.7.94-.7.94-.59.94-.7,1.06-.71.94-.7.94-.59.94-.7.94-.94-.7-1.05-.59-.93-.59-.94-.7-1.05-.47-.94-.59-1.05-.47-.93-.47-1.06-.47-.93-.47-1.05-.35-.94-.47-1.29-.35-1.17-.35-1.17-.35-1.17-.24-1.17-.23-1.17-.24-1.17-.12-1.17-.12-1.05-.12h-2.57l-1.28.23-1.17.24-1.05.23-.93.47-.82.47-1.05.94-.7,1.06-.46,1.06-.12,1.17v.24l.12,1.53.58,1.29.47.7.81.82,1.06.59.93.59,1.17.47,1.29.47,1.4.47.93.23.93.35,1.06.23,1.05.35,1.17.24,1.29.35,1.28.35,1.28.35,1.28.23,1.17.35,1.28.35,1.17.23,1.17.35,1.17.35,1.05.35,1.17.35,1.05.35,1.05.35,1.29.46,1.17.59,1.17.47,1.17.59,1.06.59,1.05.59.93.59.94.7.93.59.93.82.94.82.81.94.82.82.7.94.7,1.06.58.94.59,1.06.47.94.35,1.06.35,1.06.23,1.06.23,1.17.23,1.17.12,1.17.12,1.29v1.29Z"/>
      </g>
    </g>
  </g>
</svg>