<?xml version="1.0" encoding="UTF-8"?>
<svg id="Layer_2" data-name="Layer 2" xmlns="http://www.w3.org/2000/svg" xmlns:xlink="http://www.w3.org/1999/xlink" viewBox="0 0 63.93 64">
  <defs>
    <style>
      .cls-1 {
        fill: #fff;
        stroke-width: 0px;
      }
    </style>
    <symbol id="B" viewBox="0 0 63.93 64">
      <g>
        <path class="cls-1" d="m42.47,15.83c4.47.01,8.1,3.64,8.1,8.11,0,4.47-3.63,8.1-8.1,8.11-4.47-.01-8.09-3.64-8.1-8.11,0-4.47,3.63-8.1,8.1-8.11Zm-6.07,8.1c0,3.36,2.72,6.09,6.08,6.09,3.36,0,6.09-2.73,6.08-6.09,0-3.36-2.73-6.09-6.08-6.09-3.36,0-6.08,2.73-6.08,6.09h0Z"/>
        <path class="cls-1" d="m26.5,46.25s0,0,0,0c1.07-2.57-.14-5.53-2.72-6.6l-4.1-1.7c1.58-.6,3.37-.62,5.05.08,1.7.7,3,2.03,3.7,3.72.7,1.69.69,3.56,0,5.25h0c-1.45,3.5-5.47,5.15-8.95,3.69-1.55-.65-2.8-1.85-3.52-3.36l3.96,1.64c2.57,1.07,5.52-.15,6.59-2.72Z"/>
        <path class="cls-1" d="m31.93,64c-14.47,0-26.7-9.61-30.65-22.8h0s0,0,0,0c0,.03.02.05.02.08l12.16,5.02c.6,2.73,2.48,5.12,5.24,6.27,4.52,1.88,9.72-.26,11.6-4.78.48-1.16.72-2.4.68-3.66l11.19-8.01h.27c6.71,0,12.16-5.46,12.16-12.17s-5.44-12.16-12.16-12.17c-6.7,0-12.15,5.46-12.15,12.17h.01v.16s-7.83,11.38-7.83,11.38c-1.27-.06-2.54.17-3.75.66-.53.21-1.03.48-1.5.8L.04,29.85s0,.03,0,.09c-.01-.02-.02-.04-.04-.06C1.1,13.19,14.97,0,31.93,0s32,14.33,32,32-14.33,32-32,32Z"/>
        <path class="cls-1" d="m1.28,41.19C-.24,36.65,0,30.71.04,29.94c2.04,3.44,2.83,5.6,1.24,11.26Z"/>
      </g>
    </symbol>
  </defs>
  <g id="Layer_1-2" data-name="Layer 1">
    <use width="63.93" height="64" xlink:href="#B"/>
  </g>
</svg>