<?xml version="1.0" encoding="UTF-8"?>
<svg id="Layer_2" data-name="Layer 2" xmlns="http://www.w3.org/2000/svg" viewBox="0 0 619.48 594.05">
  <defs>
    <style>
      .cls-1 {
        fill: #7b7b7b;
        stroke-width: 0px;
      }
    </style>
  </defs>
  <g id="Layer_1-2" data-name="Layer 1">
    <path class="cls-1" d="m0,526.84c3.37-5.24,6.52-9.53,9.05-14.16,10.73-19.68,22.28-38.99,31.62-59.32,10.89-23.68,20.6-47.98,29.25-72.56,5.64-16.02,8.75-32.97,12.49-49.61,3.81-16.95,7.4-33.97,10.37-51.09,5.09-29.39,13.58-57.83,23.66-85.79,3.69-10.25,9-20.02,14.38-29.55,9.81-17.38,22.71-32.35,37.41-45.83,13.6-12.48,29.46-20.99,46.75-26.87,18.1-6.16,36.8-8.51,55.93-7.81,12.64.46,25.38-.26,37.9,1.14,14.28,1.59,28.49,4.43,42.52,7.66,25.64,5.9,50.44,14.55,74.42,25.33,11.96,5.37,23.47,11.77,35.02,18,3.15,1.7,4.07-.21,4.86-2.1,2.75-6.58,5.57-13.17,7.76-19.94,3.62-11.21,6.85-22.56,10.11-33.88,5.83-20.22,11.47-40.49,17.4-60.67,1.72-5.86,4.25-11.48,6.27-17.26,1.01-2.87,2.88-2.99,5.06-1.8,4.08,2.23,8.2,4.44,12.07,7.01,24.39,16.18,48.71,32.45,73.05,48.7.8.54,1.52,1.21,2.62,2.1-4.65,4.41-9.19,8.51-13.49,12.84-6,6.05-11.08,12.94-16.6,19.32-14.04,16.21-29.69,31.04-44.83,46.29-7.36,7.41-15.03,14.52-24.03,23.17,2.75,2.18,5.81,4.64,8.91,7.06,17.71,13.82,35.52,27.65,50.29,44.66,20.69,23.82,39.08,49.23,49.36,79.61,6.99,20.66,11.2,41.72,9.53,63.66-.16,2.15-.46,4.3-.85,6.42-4.9,26.91-8.83,54.14-19.37,79.58-6.07,14.66-11.83,29.39-20.47,43.13-8.73,13.89-17.96,27.31-29.48,38.61-10.94,10.72-24.02,19.25-36.16,28.74-.44-.45-.89-.9-1.33-1.35,2.7-4.59,4.93-9.55,8.2-13.69,8.91-11.24,12.66-24.63,14.95-38.12,2.15-12.65,2.4-25.53-1.53-38.47-3.84-12.65-9.4-24.11-17.07-34.67-10.05-13.83-22.56-24.5-38.39-31.59-8.52-3.82-17.42-5.33-26.13-7.93-14.96-4.45-29.03-.81-42.58,3.16-33.3,9.76-54.18,32.98-66.24,65.13-5.74,15.29-5.53,30.89-3.27,46.24,2.52,17.11,9.99,32.62,21.93,45.6,9.52,10.35,19.69,19.91,32.43,26.23,8.87,4.4,18.14,7.45,28.22,7.25.98-.02,1.98.16,2.94.37.45.1.84.52,1.51.97-3.25,4.48-8.12,5.46-12.97,6.22-14.56,2.29-29.13,4.49-43.71,6.63-2.46.36-4.98.39-7.47.39-30,.02-60,.09-90-.06-4.77-.02-9.52-1.16-14.3-1.62-7.77-.74-15.63-.92-23.33-2.12-11.3-1.76-22.5-4.16-33.72-6.36-16.24-3.18-32.48-6.38-48.69-9.7-4.22-.86-8.33-2.24-12.51-3.31-17.62-4.54-35.37-8.62-52.83-13.72-18.79-5.49-37.39-11.71-55.91-18.05-10.3-3.53-20.28-7.97-31-12.24Z"/>
  </g>
</svg>