<?xml version="1.0" encoding="UTF-8"?>
<svg id="Layer_1" data-name="Layer 1" xmlns="http://www.w3.org/2000/svg" viewBox="0 0 370.87 186.2">
  <defs>
    <style>
      .cls-1 {
        fill: #ffedc0;
      }

      .cls-1, .cls-2 {
        fill-rule: evenodd;
        stroke-width: 0px;
      }

      .cls-2 {
        fill: none;
      }
    </style>
  </defs>
  <path class="cls-2" d="m298.19,159.89v5c-11.34.33-45.01,3.97-50-3-1.59-4.44-.38-8.4-4-11-25.81-13.23-119.74-7.01-139,3,23.34,30.86-45.94,41.25-62,24-.39-10.18,1.17-12.88,5-18-10.39-3.71-21.02-5.97-29-12-28.14-21.27-23.51-82.55,2-103C65.44,9.42,158.86-9.61,244.19,4.89c45.73,7.77,97.67,21.05,116,56,28.22,53.8-1.94,100.01-62,99Z"/>
  <path class="cls-1" d="m292.95,167.02c-87.48-22.67-175.02,4.83-257.13-7.78-11.59-1.78-21.47-9.43-26.09-20.21C-54.39-10.83,280.59-31.71,357.13,65.93c1.49,1.9,2.77,3.97,3.83,6.14,25.05,51.3-3.98,94.03-58.35,95.96-3.25.12-6.51-.19-9.66-1.01Z"/>
</svg>