<?xml version="1.0" encoding="UTF-8"?>
<svg id="Layer_2" data-name="Layer 2" xmlns="http://www.w3.org/2000/svg" viewBox="0 0 479.47 133.22">
  <defs>
    <style>
      .cls-1 {
        fill: #ffedc0;
        fill-rule: evenodd;
        stroke-width: 0px;
      }
    </style>
  </defs>
  <g id="Layer_1-2" data-name="Layer 1">
    <path class="cls-1" d="m119.02.15C119.94.06,120.87,0,121.8,0h169.61c37.2,0,76.4,1.43,109,4,33.47,2.64,87.34,3.7,78,50-2.64,13.11-13.15,19.59-16,30-2.24,8.17,10.11,26.39-6,36-24,14.32-74.67,11.01-112,12-71.04,1.88-152.19,1.37-223,0-32.38-.62-69.98-.3-92.1-8.07-11.63-4.08-18.75-15.96-16.86-28.15.01-.09.03-.19.04-.28,1.06-6.77-.5-13.68-4.48-19.27-.95-1.34-1.91-2.67-2.86-3.95-2.25-3.03-3.89-6.5-4.57-10.21C-2.52,45.38,7.44,21.79,19.87,16c8.5-3.82,26.9-9.47,44.53-13C75.59.76,101.92,1.9,119.02.15Z"/>
  </g>
</svg>