<?xml version="1.0" encoding="UTF-8"?>
<svg id="Layer_1" data-name="Layer 1" xmlns="http://www.w3.org/2000/svg" xmlns:xlink="http://www.w3.org/1999/xlink" viewBox="0 0 108.26 60">
  <defs>
    <style>
      .cls-1 {
        fill: none;
      }

      .cls-1, .cls-2, .cls-3 {
        stroke-width: 0px;
      }

      .cls-2, .cls-3 {
        fill: #fff;
      }

      .cls-3 {
        fill-rule: evenodd;
      }

      .cls-4 {
        clip-path: url(#clippath);
      }
    </style>
    <clipPath id="clippath">
      <rect class="cls-1" width="108.26" height="60"/>
    </clipPath>
  </defs>
  <g class="cls-4">
    <g>
      <path class="cls-2" d="m28.89,54.04v.62c0,.17-.1.28-.28.28h-1.49v-1.18h1.49c.17,0,.28.1.28.28Z"/>
      <path class="cls-2" d="m34.91,53.76h-1.53v1.11h1.53c.17,0,.28-.1.28-.28v-.55c0-.17-.1-.28-.28-.28Zm0,0h-1.53v1.11h1.53c.17,0,.28-.1.28-.28v-.55c0-.17-.1-.28-.28-.28Zm0,0h-1.53v1.11h1.53c.17,0,.28-.1.28-.28v-.55c0-.17-.1-.28-.28-.28Zm6.55-.07h-1.49c-.17,0-.28.1-.28.28v2.15c0,.17.1.28.28.28h1.49c.17,0,.28-.1.28-.28v-2.15c0-.17-.1-.28-.28-.28Zm0,0h-1.49c-.17,0-.28.1-.28.28v2.15c0,.17.1.28.28.28h1.49c.17,0,.28-.1.28-.28v-2.15c0-.17-.1-.28-.28-.28Zm-6.55.07h-1.53v1.11h1.53c.17,0,.28-.1.28-.28v-.55c0-.17-.1-.28-.28-.28Zm0,0h-1.53v1.11h1.53c.17,0,.28-.1.28-.28v-.55c0-.17-.1-.28-.28-.28Zm6.55-.07h-1.49c-.17,0-.28.1-.28.28v2.15c0,.17.1.28.28.28h1.49c.17,0,.28-.1.28-.28v-2.15c0-.17-.1-.28-.28-.28Zm19.7.49h-.07l-.45,1.21h.97l-.45-1.21Zm0,0h-.07l-.45,1.21h.97l-.45-1.21Zm-19.7-.49h-1.49c-.17,0-.28.1-.28.28v2.15c0,.17.1.28.28.28h1.49c.17,0,.28-.1.28-.28v-2.15c0-.17-.1-.28-.28-.28Zm-6.55.07h-1.53v1.11h1.53c.17,0,.28-.1.28-.28v-.55c0-.17-.1-.28-.28-.28Zm0,0h-1.53v1.11h1.53c.17,0,.28-.1.28-.28v-.55c0-.17-.1-.28-.28-.28Zm6.55-.07h-1.49c-.17,0-.28.1-.28.28v2.15c0,.17.1.28.28.28h1.49c.17,0,.28-.1.28-.28v-2.15c0-.17-.1-.28-.28-.28Zm19.7.49h-.07l-.45,1.21h.97l-.45-1.21Zm0,0h-.07l-.45,1.21h.97l-.45-1.21Zm-19.7-.49h-1.49c-.17,0-.28.1-.28.28v2.15c0,.17.1.28.28.28h1.49c.17,0,.28-.1.28-.28v-2.15c0-.17-.1-.28-.28-.28Zm-6.55.07h-1.53v1.11h1.53c.17,0,.28-.1.28-.28v-.55c0-.17-.1-.28-.28-.28Zm-30.16-3.68l9.92,9.92h78.81l9.92-9.92H4.75Zm25.45,4.82c0,.76-.42,1.18-1.18,1.18h-1.9v1.18c0,.14-.07.21-.21.21h-.9c-.14,0-.21-.07-.21-.21v-4.43c0-.14.07-.21.21-.21h3.01c.76,0,1.18.42,1.18,1.18v1.11Zm6.2,2.56h-1c-.17,0-.24-.07-.31-.21l-.66-1.25h-1.04v1.25c0,.14-.07.21-.21.21h-.9c-.14,0-.21-.07-.21-.21v-4.43c0-.14.07-.21.21-.21h3.05c.76,0,1.18.42,1.18,1.18v1.04c0,.97-.73,1.11-.73,1.11l.73,1.32c.08.14,0,.21-.1.21Zm6.65-1.11c0,.76-.42,1.18-1.18,1.18h-2.32c-.76,0-1.18-.42-1.18-1.18v-2.63c0-.76.42-1.18,1.18-1.18h2.32c.76,0,1.18.42,1.18,1.18v2.63Zm8.49.9c0,.14-.07.21-.21.21h-3.6c-.14,0-.21-.07-.21-.21v-4.43c0-.14.07-.21.21-.21h.9c.14,0,.21.07.21.21v3.5h2.49c.14,0,.21.07.21.21v.73Zm5.75,0c0,.14-.07.21-.21.21h-3.74c-.14,0-.21-.07-.21-.21v-4.43c0-.14.07-.21.21-.21h3.67c.14,0,.21.07.21.21v.73c0,.14-.07.21-.21.21h-2.56v.66h1.94c.14,0,.21.07.21.21v.73c0,.14-.07.21-.21.21h-1.94v.76h2.63c.14,0,.21.07.21.21v.73Zm6.3.21h-1c-.14,0-.22-.07-.28-.21l-.28-.73h-1.8l-.28.73c-.06.14-.14.21-.28.21h-1c-.1,0-.16-.07-.1-.21l1.66-4.43c.06-.14.14-.21.28-.21h1.25c.14,0,.22.07.28.21l1.66,4.43c.06.14,0,.21-.1.21Zm6.09-3.33c0,.14-.07.21-.21.21h-.9c-.14,0-.21-.07-.21-.21v-.17c0-.17-.1-.28-.28-.28h-1.42c-.17,0-.28.1-.28.28v2.15c0,.17.1.28.28.28h1.42c.17,0,.28-.1.28-.28v-.31h-.83c-.14,0-.21-.07-.21-.21v-.69c0-.14.07-.21.21-.21h1.94c.14,0,.21.07.21.21v1.46c0,.76-.42,1.18-1.18,1.18h-2.25c-.76,0-1.18-.42-1.18-1.18v-2.63c0-.76.42-1.18,1.18-1.18h2.25c.76,0,1.18.42,1.18,1.18v.42Zm6.51,2.22c0,.76-.42,1.18-1.18,1.18h-2.18c-.76,0-1.18-.42-1.18-1.18v-3.53c0-.14.07-.21.21-.21h.9c.14,0,.21.07.21.21v3.29c0,.17.1.28.28.28h1.35c.17,0,.28-.1.28-.28v-3.29c0-.14.07-.21.21-.21h.9c.14,0,.21.07.21.21v3.53Zm6.17.9c0,.14-.07.21-.21.21h-3.74c-.14,0-.21-.07-.21-.21v-4.43c0-.14.07-.21.21-.21h3.67c.14,0,.21.07.21.21v.73c0,.14-.07.21-.21.21h-2.56v.66h1.94c.14,0,.21.07.21.21v.73c0,.14-.07.21-.21.21h-1.94v.76h2.63c.14,0,.21.07.21.21v.73Zm-21.26-3.08l-.45,1.21h.97l-.45-1.21h-.07Zm-19.63-.49h-1.49c-.17,0-.28.1-.28.28v2.15c0,.17.1.28.28.28h1.49c.17,0,.28-.1.28-.28v-2.15c0-.17-.1-.28-.28-.28Zm-6.55.07h-1.53v1.11h1.53c.17,0,.28-.1.28-.28v-.55c0-.17-.1-.28-.28-.28Zm0,0h-1.53v1.11h1.53c.17,0,.28-.1.28-.28v-.55c0-.17-.1-.28-.28-.28Zm6.55-.07h-1.49c-.17,0-.28.1-.28.28v2.15c0,.17.1.28.28.28h1.49c.17,0,.28-.1.28-.28v-2.15c0-.17-.1-.28-.28-.28Zm19.7.49h-.07l-.45,1.21h.97l-.45-1.21Zm0,0h-.07l-.45,1.21h.97l-.45-1.21Zm-19.7-.49h-1.49c-.17,0-.28.1-.28.28v2.15c0,.17.1.28.28.28h1.49c.17,0,.28-.1.28-.28v-2.15c0-.17-.1-.28-.28-.28Zm-6.55.07h-1.53v1.11h1.53c.17,0,.28-.1.28-.28v-.55c0-.17-.1-.28-.28-.28Zm0,0h-1.53v1.11h1.53c.17,0,.28-.1.28-.28v-.55c0-.17-.1-.28-.28-.28Zm6.55-.07h-1.49c-.17,0-.28.1-.28.28v2.15c0,.17.1.28.28.28h1.49c.17,0,.28-.1.28-.28v-2.15c0-.17-.1-.28-.28-.28Zm0,0h-1.49c-.17,0-.28.1-.28.28v2.15c0,.17.1.28.28.28h1.49c.17,0,.28-.1.28-.28v-2.15c0-.17-.1-.28-.28-.28Zm-6.55.07h-1.53v1.11h1.53c.17,0,.28-.1.28-.28v-.55c0-.17-.1-.28-.28-.28Zm0,0h-1.53v1.11h1.53c.17,0,.28-.1.28-.28v-.55c0-.17-.1-.28-.28-.28Zm6.55-.07h-1.49c-.17,0-.28.1-.28.28v2.15c0,.17.1.28.28.28h1.49c.17,0,.28-.1.28-.28v-2.15c0-.17-.1-.28-.28-.28Zm0,0h-1.49c-.17,0-.28.1-.28.28v2.15c0,.17.1.28.28.28h1.49c.17,0,.28-.1.28-.28v-2.15c0-.17-.1-.28-.28-.28Zm-6.55.07h-1.53v1.11h1.53c.17,0,.28-.1.28-.28v-.55c0-.17-.1-.28-.28-.28Z"/>
      <path class="cls-3" d="m11.11,20.43l-.65-1.75h-.08l-.65,1.75h1.39Zm-1.8,1.14l-.37.98c-.05.12-.12.2-.29.2h-1.02c-.12,0-.17-.08-.12-.2l2-5.3c.05-.12.16-.2.33-.2h1.18c.16,0,.24.08.29.2l2,5.3c.05.12,0,.2-.12.2h-1.02c-.16,0-.24-.08-.29-.2l-.37-.98h-2.2,0Z"/>
      <path class="cls-3" d="m17.82,18.18v1.75h1.92c.29,0,.45-.16.45-.45v-.86c0-.29-.16-.45-.45-.45h-1.92Zm0,2.9v1.47c0,.12-.08.2-.2.2h-.9c-.12,0-.2-.08-.2-.2v-5.3c0-.12.08-.2.2-.2h3.35c.94,0,1.43.49,1.43,1.43v1.18c0,.94-.49,1.43-1.43,1.43h-2.24Z"/>
      <path class="cls-3" d="m26.39,21.61h3.22c.12,0,.2.08.2.2v.73c0,.12-.08.2-.2.2h-4.32c-.12,0-.2-.08-.2-.2v-5.3c0-.12.08-.2.2-.2h4.24c.12,0,.2.08.2.2v.73c0,.12-.08.2-.2.2h-3.14v1.1h2.41c.12,0,.2.08.2.2v.73c0,.12-.08.2-.2.2h-2.41v1.18Z"/>
      <path class="cls-3" d="m35.32,18.75l.98-1.51c.08-.12.16-.2.33-.2h1.06c.12,0,.2.08.12.2l-1.71,2.49,1.92,2.82c.08.12,0,.2-.12.2h-1.06c-.16,0-.25-.08-.33-.2l-1.18-1.8h-.08l-1.18,1.8c-.08.12-.16.2-.33.2h-1.06c-.12,0-.2-.08-.12-.2l1.92-2.82-1.71-2.49c-.08-.12,0-.2.12-.2h1.06c.16,0,.25.08.33.2l.98,1.51h.08Z"/>
      <path class="cls-3" d="m46.62,21.61h3.06c.12,0,.2.08.2.2v.73c0,.12-.08.2-.2.2h-4.16c-.12,0-.2-.08-.2-.2v-5.3c0-.12.08-.2.2-.2h.9c.12,0,.2.08.2.2v4.37Z"/>
      <path class="cls-3" d="m54.37,21.61h3.22c.12,0,.2.08.2.2v.73c0,.12-.08.2-.2.2h-4.32c-.12,0-.2-.08-.2-.2v-5.3c0-.12.08-.2.2-.2h4.24c.12,0,.2.08.2.2v.73c0,.12-.08.2-.2.2h-3.14v1.1h2.41c.12,0,.2.08.2.2v.73c0,.12-.08.2-.2.2h-2.41v1.18Z"/>
      <path class="cls-3" d="m66.28,21.41c0,.94-.49,1.43-1.43,1.43h-2.37c-.94,0-1.43-.49-1.43-1.43v-3.02c0-.94.49-1.43,1.43-1.43h2.37c.94,0,1.43.49,1.43,1.43v.41c0,.12-.08.2-.2.2h-.9c-.12,0-.2-.08-.2-.2v-.25c0-.29-.16-.45-.45-.45h-1.71c-.29,0-.45.16-.45.45v2.69c0,.29.16.45.45.45h1.71c.29,0,.45-.16.45-.45v-.53h-1.06c-.12,0-.2-.08-.2-.2v-.73c0-.12.08-.2.2-.2h2.16c.12,0,.2.08.2.2v1.63h0Z"/>
      <path class="cls-3" d="m71.25,21.61h3.22c.12,0,.2.08.2.2v.73c0,.12-.08.2-.2.2h-4.32c-.12,0-.2-.08-.2-.2v-5.3c0-.12.08-.2.2-.2h4.24c.12,0,.2.08.2.2v.73c0,.12-.08.2-.2.2h-3.14v1.1h2.41c.12,0,.2.08.2.2v.73c0,.12-.08.2-.2.2h-2.41v1.18Z"/>
      <path class="cls-3" d="m81.94,20.75v-3.51c0-.12.08-.2.2-.2h.9c.12,0,.2.08.2.2v5.3c0,.12-.08.2-.2.2h-1.1c-.16,0-.25-.08-.33-.2l-2.2-3.51h-.08v3.51c0,.12-.08.2-.2.2h-.9c-.12,0-.2-.08-.2-.2v-5.3c0-.12.08-.2.2-.2h1.1c.16,0,.25.08.33.2l2.2,3.51h.08Z"/>
      <path class="cls-3" d="m88.31,21.61h2.16c.29,0,.45-.16.45-.45v-2.53c0-.29-.16-.45-.45-.45h-2.16v3.43Zm2.49-4.57c.94,0,1.43.49,1.43,1.43v2.86c0,.94-.49,1.43-1.43,1.43h-3.59c-.12,0-.2-.08-.2-.2v-5.3c0-.12.08-.2.2-.2h3.59Z"/>
      <path class="cls-3" d="m99.36,21.08c0-.2-.12-.33-.37-.41l-2.24-.69c-.65-.2-.98-.53-.98-1.22v-.37c0-.94.49-1.43,1.43-1.43h1.96c.94,0,1.43.49,1.43,1.43v.41c0,.12-.08.2-.2.2h-.9c-.12,0-.2-.08-.2-.2v-.25c0-.29-.16-.45-.45-.45h-1.31c-.29,0-.45.16-.45.45v.08c0,.2.12.33.37.41l2.24.69c.65.2.98.53.98,1.22v.45c0,.94-.49,1.43-1.43,1.43h-2.16c-.94,0-1.43-.49-1.43-1.43v-.41c0-.12.08-.2.2-.2h.9c.12,0,.2.08.2.2v.25c0,.29.16.45.45.45h1.51c.29,0,.45-.16.45-.45v-.16Z"/>
      <path class="cls-3" d="m11.11,20.43l-.65-1.75h-.08l-.65,1.75h1.39Zm-1.8,1.14l-.37.98c-.05.12-.12.2-.29.2h-1.02c-.12,0-.17-.08-.12-.2l2-5.3c.05-.12.16-.2.33-.2h1.18c.16,0,.24.08.29.2l2,5.3c.05.12,0,.2-.12.2h-1.02c-.16,0-.24-.08-.29-.2l-.37-.98h-2.2,0Z"/>
      <path class="cls-3" d="m17.82,18.18v1.75h1.92c.29,0,.45-.16.45-.45v-.86c0-.29-.16-.45-.45-.45h-1.92Zm0,2.9v1.47c0,.12-.08.2-.2.2h-.9c-.12,0-.2-.08-.2-.2v-5.3c0-.12.08-.2.2-.2h3.35c.94,0,1.43.49,1.43,1.43v1.18c0,.94-.49,1.43-1.43,1.43h-2.24Z"/>
      <path class="cls-3" d="m26.39,21.61h3.22c.12,0,.2.08.2.2v.73c0,.12-.08.2-.2.2h-4.32c-.12,0-.2-.08-.2-.2v-5.3c0-.12.08-.2.2-.2h4.24c.12,0,.2.08.2.2v.73c0,.12-.08.2-.2.2h-3.14v1.1h2.41c.12,0,.2.08.2.2v.73c0,.12-.08.2-.2.2h-2.41v1.18Z"/>
      <path class="cls-3" d="m35.32,18.75l.98-1.51c.08-.12.16-.2.33-.2h1.06c.12,0,.2.08.12.2l-1.71,2.49,1.92,2.82c.08.12,0,.2-.12.2h-1.06c-.16,0-.25-.08-.33-.2l-1.18-1.8h-.08l-1.18,1.8c-.08.12-.16.2-.33.2h-1.06c-.12,0-.2-.08-.12-.2l1.92-2.82-1.71-2.49c-.08-.12,0-.2.12-.2h1.06c.16,0,.25.08.33.2l.98,1.51h.08Z"/>
      <path class="cls-3" d="m46.62,21.61h3.06c.12,0,.2.08.2.2v.73c0,.12-.08.2-.2.2h-4.16c-.12,0-.2-.08-.2-.2v-5.3c0-.12.08-.2.2-.2h.9c.12,0,.2.08.2.2v4.37Z"/>
      <path class="cls-3" d="m54.37,21.61h3.22c.12,0,.2.08.2.2v.73c0,.12-.08.2-.2.2h-4.32c-.12,0-.2-.08-.2-.2v-5.3c0-.12.08-.2.2-.2h4.24c.12,0,.2.08.2.2v.73c0,.12-.08.2-.2.2h-3.14v1.1h2.41c.12,0,.2.08.2.2v.73c0,.12-.08.2-.2.2h-2.41v1.18Z"/>
      <path class="cls-3" d="m66.28,21.41c0,.94-.49,1.43-1.43,1.43h-2.37c-.94,0-1.43-.49-1.43-1.43v-3.02c0-.94.49-1.43,1.43-1.43h2.37c.94,0,1.43.49,1.43,1.43v.41c0,.12-.08.2-.2.2h-.9c-.12,0-.2-.08-.2-.2v-.25c0-.29-.16-.45-.45-.45h-1.71c-.29,0-.45.16-.45.45v2.69c0,.29.16.45.45.45h1.71c.29,0,.45-.16.45-.45v-.53h-1.06c-.12,0-.2-.08-.2-.2v-.73c0-.12.08-.2.2-.2h2.16c.12,0,.2.08.2.2v1.63h0Z"/>
      <path class="cls-3" d="m71.25,21.61h3.22c.12,0,.2.08.2.2v.73c0,.12-.08.2-.2.2h-4.32c-.12,0-.2-.08-.2-.2v-5.3c0-.12.08-.2.2-.2h4.24c.12,0,.2.08.2.2v.73c0,.12-.08.2-.2.2h-3.14v1.1h2.41c.12,0,.2.08.2.2v.73c0,.12-.08.2-.2.2h-2.41v1.18Z"/>
      <path class="cls-3" d="m81.94,20.75v-3.51c0-.12.08-.2.2-.2h.9c.12,0,.2.08.2.2v5.3c0,.12-.08.2-.2.2h-1.1c-.16,0-.25-.08-.33-.2l-2.2-3.51h-.08v3.51c0,.12-.08.2-.2.2h-.9c-.12,0-.2-.08-.2-.2v-5.3c0-.12.08-.2.2-.2h1.1c.16,0,.25.08.33.2l2.2,3.51h.08Z"/>
      <path class="cls-3" d="m88.31,21.61h2.16c.29,0,.45-.16.45-.45v-2.53c0-.29-.16-.45-.45-.45h-2.16v3.43Zm2.49-4.57c.94,0,1.43.49,1.43,1.43v2.86c0,.94-.49,1.43-1.43,1.43h-3.59c-.12,0-.2-.08-.2-.2v-5.3c0-.12.08-.2.2-.2h3.59Z"/>
      <path class="cls-3" d="m99.36,21.08c0-.2-.12-.33-.37-.41l-2.24-.69c-.65-.2-.98-.53-.98-1.22v-.37c0-.94.49-1.43,1.43-1.43h1.96c.94,0,1.43.49,1.43,1.43v.41c0,.12-.08.2-.2.2h-.9c-.12,0-.2-.08-.2-.2v-.25c0-.29-.16-.45-.45-.45h-1.31c-.29,0-.45.16-.45.45v.08c0,.2.12.33.37.41l2.24.69c.65.2.98.53.98,1.22v.45c0,.94-.49,1.43-1.43,1.43h-2.16c-.94,0-1.43-.49-1.43-1.43v-.41c0-.12.08-.2.2-.2h.9c.12,0,.2.08.2.2v.25c0,.29.16.45.45.45h1.51c.29,0,.45-.16.45-.45v-.16Z"/>
      <path class="cls-3" d="m54.1,0l-6.46,11.27,1.75,1.76,3.96-2.69h-2.41s3.15-5.5,3.15-5.5l3.14,5.51h-2.41s3.95,2.7,3.95,2.7l1.76-1.76L54.1,0Z"/>
      <path class="cls-3" d="m4.28,33.76v-3.09h-1.96v13.4h1.96v-4.15h-.77v-2.32h3.09v7.27c0,.82-.7,1.52-1.55,1.52H1.55c-.82,0-1.55-.7-1.55-1.52v-14.97c0-.82.72-1.55,1.55-1.55h3.5c.88,0,1.55.72,1.55,1.55v3.86h-2.32Z"/>
      <path class="cls-3" d="m9.84,28.35h2.32v15.72h2.73v2.32h-5.05v-18.03Z"/>
      <path class="cls-3" d="m19.92,44.06h1.96v-13.4h-1.96v13.4Zm-2.32-14.17c0-.82.72-1.55,1.55-1.55h3.5c.88,0,1.55.72,1.55,1.55v14.97c0,.82-.7,1.52-1.55,1.52h-3.5c-.82,0-1.55-.7-1.55-1.52v-14.97Z"/>
      <path class="cls-3" d="m29.76,44.06h1.96v-5.82h-1.96v5.82Zm0-8.14h1.68v-5.26h-1.68v5.26Zm-2.32-7.58h4.77c.88,0,1.55.72,1.55,1.55v5.8c0,.64-.34,1.13-.8,1.26.7.15,1.08.88,1.08,1.52v6.39c0,.82-.7,1.52-1.55,1.52h-5.05v-18.03h0Z"/>
      <path class="cls-3" d="m39.5,40.53h2.06l-1.03-9.87-1.03,9.87Zm2.32,2.32h-2.58l-.36,3.53h-2.32l1.91-18.03h4.12l1.86,18.03h-2.27l-.36-3.53h0Z"/>
      <path class="cls-3" d="m47.07,28.35h2.32v15.72h2.73v2.32h-5.05v-18.03Z"/>
      <path class="cls-3" d="m60.83,40.94v3.12h1.96v-5.82h-2.73c-.9,0-1.55-.75-1.55-1.52v-6.83c0-.9.62-1.55,1.55-1.55h3.5c.88,0,1.55.64,1.55,1.52v3.79h-2.32v-2.99h-1.96v5.26h2.73c.88,0,1.55.72,1.55,1.55v7.39c0,.82-.7,1.52-1.55,1.52h-3.5c-.82,0-1.55-.7-1.55-1.52v-3.92h2.32Z"/>
      <path class="cls-3" d="m74.33,46.38h-5.98v-18.03h5.8v2.32h-3.48v4.97h2.45v2.32h-2.45v6.11h3.66v2.32Z"/>
      <path class="cls-3" d="m79.64,36.41h1.68v-5.75h-1.68v5.75Zm1.96,2.32h-1.96v7.65h-2.32v-18.03h4.77c.88,0,1.55.72,1.55,1.55v6.29c0,.64-.34,1.13-.8,1.26.7.15,1.08.88,1.08,1.52v7.42h-2.32v-7.65h0Z"/>
      <path class="cls-3" d="m87.03,46.38h2.32v-18.03h-2.32v18.03Z"/>
      <path class="cls-3" d="m98.57,46.38h-5.98v-18.03h5.8v2.32h-3.48v4.97h2.45v2.32h-2.45v6.11h3.66v2.32Z"/>
      <path class="cls-3" d="m103.88,40.94v3.12h1.96v-5.82h-2.73c-.9,0-1.55-.75-1.55-1.52v-6.83c0-.9.62-1.55,1.55-1.55h3.5c.88,0,1.55.64,1.55,1.52v3.79h-2.32v-2.99h-1.96v5.26h2.73c.88,0,1.55.72,1.55,1.55v7.39c0,.82-.69,1.52-1.55,1.52h-3.5c-.82,0-1.55-.7-1.55-1.52v-3.92h2.32,0Z"/>
      <path class="cls-3" d="m4.28,33.76v-3.09h-1.96v13.4h1.96v-4.15h-.77v-2.32h3.09v7.27c0,.82-.7,1.52-1.55,1.52H1.55c-.82,0-1.55-.7-1.55-1.52v-14.97c0-.82.72-1.55,1.55-1.55h3.5c.88,0,1.55.72,1.55,1.55v3.86h-2.32Z"/>
      <path class="cls-3" d="m9.84,28.35h2.32v15.72h2.73v2.32h-5.05v-18.03Z"/>
      <path class="cls-3" d="m19.92,44.06h1.96v-13.4h-1.96v13.4Zm-2.32-14.17c0-.82.72-1.55,1.55-1.55h3.5c.88,0,1.55.72,1.55,1.55v14.97c0,.82-.7,1.52-1.55,1.52h-3.5c-.82,0-1.55-.7-1.55-1.52v-14.97Z"/>
      <path class="cls-3" d="m29.76,44.06h1.96v-5.82h-1.96v5.82Zm0-8.14h1.68v-5.26h-1.68v5.26Zm-2.32-7.58h4.77c.88,0,1.55.72,1.55,1.55v5.8c0,.64-.34,1.13-.8,1.26.7.15,1.08.88,1.08,1.52v6.39c0,.82-.7,1.52-1.55,1.52h-5.05v-18.03h0Z"/>
      <path class="cls-3" d="m39.5,40.53h2.06l-1.03-9.87-1.03,9.87Zm2.32,2.32h-2.58l-.36,3.53h-2.32l1.91-18.03h4.12l1.86,18.03h-2.27l-.36-3.53h0Z"/>
      <path class="cls-3" d="m47.07,28.35h2.32v15.72h2.73v2.32h-5.05v-18.03Z"/>
      <path class="cls-3" d="m60.83,40.94v3.12h1.96v-5.82h-2.73c-.9,0-1.55-.75-1.55-1.52v-6.83c0-.9.62-1.55,1.55-1.55h3.5c.88,0,1.55.64,1.55,1.52v3.79h-2.32v-2.99h-1.96v5.26h2.73c.88,0,1.55.72,1.55,1.55v7.39c0,.82-.7,1.52-1.55,1.52h-3.5c-.82,0-1.55-.7-1.55-1.52v-3.92h2.32Z"/>
      <path class="cls-3" d="m74.33,46.38h-5.98v-18.03h5.8v2.32h-3.48v4.97h2.45v2.32h-2.45v6.11h3.66v2.32Z"/>
      <path class="cls-3" d="m79.64,36.41h1.68v-5.75h-1.68v5.75Zm1.96,2.32h-1.96v7.65h-2.32v-18.03h4.77c.88,0,1.55.72,1.55,1.55v6.29c0,.64-.34,1.13-.8,1.26.7.15,1.08.88,1.08,1.52v7.42h-2.32v-7.65h0Z"/>
      <path class="cls-3" d="m87.03,46.38h2.32v-18.03h-2.32v18.03Z"/>
      <path class="cls-3" d="m98.57,46.38h-5.98v-18.03h5.8v2.32h-3.48v4.97h2.45v2.32h-2.45v6.11h3.66v2.32Z"/>
      <path class="cls-3" d="m103.88,40.94v3.12h1.96v-5.82h-2.73c-.9,0-1.55-.75-1.55-1.52v-6.83c0-.9.62-1.55,1.55-1.55h3.5c.88,0,1.55.64,1.55,1.52v3.79h-2.32v-2.99h-1.96v5.26h2.73c.88,0,1.55.72,1.55,1.55v7.39c0,.82-.69,1.52-1.55,1.52h-3.5c-.82,0-1.55-.7-1.55-1.52v-3.92h2.32,0Z"/>
      <path class="cls-2" d="m101.44,16.88s.02,0,.02.02v.06s0,.02-.02.02h-.17v.45s0,.02-.02.02h-.06s-.02,0-.02-.02v-.45h-.17s-.02,0-.02-.02v-.06s0-.02.02-.02h.44Z"/>
      <path class="cls-2" d="m102.01,17.45s-.02,0-.03-.02l-.16-.37h0v.37s0,.02-.02.02h-.06s-.02,0-.02-.02v-.53s0-.02.02-.02h.08s.02,0,.03.02l.19.43h0l.19-.43s0-.02.03-.02h.08s.02,0,.02.02v.53s0,.02-.02.02h-.06s-.02,0-.02-.02v-.37h0l-.16.37s0,.02-.03.02h-.04Z"/>
      <path class="cls-2" d="m101.44,16.88s.02,0,.02.02v.06s0,.02-.02.02h-.17v.45s0,.02-.02.02h-.06s-.02,0-.02-.02v-.45h-.17s-.02,0-.02-.02v-.06s0-.02.02-.02h.44Z"/>
      <path class="cls-2" d="m102.01,17.45s-.02,0-.03-.02l-.16-.37h0v.37s0,.02-.02.02h-.06s-.02,0-.02-.02v-.53s0-.02.02-.02h.08s.02,0,.03.02l.19.43h0l.19-.43s0-.02.03-.02h.08s.02,0,.02.02v.53s0,.02-.02.02h-.06s-.02,0-.02-.02v-.37h0l-.16.37s0,.02-.03.02h-.04Z"/>
    </g>
  </g>
</svg>