<?xml version="1.0" encoding="UTF-8"?>
<svg id="Layer_1" data-name="Layer 1" xmlns="http://www.w3.org/2000/svg" viewBox="0 0 54.33 36.28">
  <defs>
    <style>
      .cls-1 {
        fill: #fff;
        stroke-width: 0px;
      }
    </style>
  </defs>
  <g id="Layer_2" data-name="Layer 2">
    <g id="Layer_1-2" data-name="Layer 1-2">
      <path class="cls-1" d="m22,0h-6.79l-.82,3.83h.82v22.55h4v-7.66h2.79c1.82,0,3.29-1.46,3.3-3.28,0,0,0,0,0-.01V3.29C25.3,1.47,23.83,0,22.01,0c0,0,0,0-.01,0Zm-.72,14.89h-2V3.83h2v11.06Z"/>
      <polygon class="cls-1" points="28.83 3.83 29.66 3.83 29.66 26.39 38.77 26.39 38.77 22.55 33.67 22.55 33.67 15.11 37.26 15.11 37.26 11.28 33.67 11.28 33.67 3.83 38.77 3.83 38.77 0 29.66 0 28.83 3.83"/>
      <polygon class="cls-1" points="51.35 12.27 54.33 0 50.09 0 48.24 8.31 46.23 0 43.09 0 42.26 3.83 43.09 3.83 43.09 3.83 45.14 12.27 45.14 14.11 42.16 26.39 46.39 26.39 48.24 18.08 50.25 26.39 54.33 26.39 51.35 14.11 51.35 12.27"/>
      <path class="cls-1" d="m8.71,0H3.18L1.18,18.72h-.37v.09l-.81,3.74h.81l-.4,3.83h3.59l.34-3.83h3.22l.34,3.83h3.58L8.71,0Zm-4.05,18.72l1.28-14.89,1.29,14.89h-2.57Z"/>
      <polygon class="cls-1" points="9.77 32.63 9.77 33.48 .59 33.48 .41 32.63 9.77 32.63"/>
      <polygon class="cls-1" points="44.97 32.63 44.97 33.48 54.15 33.48 54.33 32.63 44.97 32.63"/>
      <polygon class="cls-1" points="17.19 36.28 19.38 36.28 19.38 35.43 18.04 35.43 18.04 33.48 19.04 33.48 19.04 32.63 18.04 32.63 18.04 30.53 19.38 30.53 19.38 29.68 17.19 29.68 17.19 36.28"/>
      <polygon class="cls-1" points="14.09 30.53 14.09 29.68 13.24 29.68 13.24 36.28 15.43 36.28 15.43 35.43 14.09 35.43 14.09 30.53"/>
      <path class="cls-1" d="m23.23,29.68h-1.29c-.31.01-.55.26-.56.57v5.47c0,.31.25.55.56.56h1.29c.31,0,.55-.25.56-.56v-3.09h-1.11l-.18.85h.44v2h-.71v-4.9h.71v.85l.85-.19v-.94c.03-.31-.2-.59-.52-.62-.01,0-.03,0-.04,0Z"/>
      <polygon class="cls-1" points="25.79 36.28 27.98 36.28 27.98 35.43 26.64 35.43 26.64 33.48 27.63 33.48 27.63 32.63 26.64 32.63 26.64 30.53 27.98 30.53 27.98 29.68 25.79 29.68 25.79 36.28"/>
      <polygon class="cls-1" points="31.82 33.48 30.74 29.68 29.98 29.68 29.98 36.28 30.82 36.28 30.82 32.63 31.95 36.28 32.67 36.28 32.67 29.68 31.82 29.68 31.82 33.48"/>
      <path class="cls-1" d="m36.52,29.68h-1.85v6.6h1.85c.31,0,.55-.25.56-.56v-5.47c0-.31-.25-.56-.56-.57Zm-.28,5.75h-.72v-4.9h.72v4.9Z"/>
      <path class="cls-1" d="m40.93,32.63h-1v-2.1h.72v.85l.85-.19h0v-1c0-.31-.25-.56-.56-.56,0,0,0,0-.01,0h-1.28c-.3-.01-.56.23-.57.53,0,.01,0,.03,0,.04v2.67c0,.31.26.56.57.56h1v2h-.72v-.89l-.85.18v1c.01.31.26.55.57.56h1.28c.31,0,.56-.25.57-.56v-2.52c0-.31-.26-.56-.57-.57Z"/>
      <path class="cls-1" d="m42.69,29.79h-.2v-.11h.51v.11h-.2v.74h-.11v-.74Z"/>
      <path class="cls-1" d="m43.51,30.53v-.46l-.09.28h-.09l-.08-.28v.46h-.12v-.85h.11l.13.43.14-.43h.11v.85h-.11Z"/>
    </g>
  </g>
</svg>