<?xml version="1.0" encoding="UTF-8"?>
<svg id="Layer_1" data-name="Layer 1" xmlns="http://www.w3.org/2000/svg" viewBox="0 0 148 30">
  <defs>
    <style>
      .cls-1 {
        fill: #fff;
        fill-rule: evenodd;
        stroke-width: 0px;
      }
    </style>
  </defs>
  <path class="cls-1" d="m147.7.37h0l-.27.81h-.29l-.27-.81h0v.81h-.3V0h.48l.24.72h0l.24-.72h.48v1.19h-.3V.37Zm-2-.1h-.32v-.27h.96v.27h-.32v.92h-.32V.27ZM38.15,5.31h4.34c.63,0,1.1.13,1.39.38.28.24.42.67.42,1.15,0,.49-.14.82-.42,1.07-.29.26-.76.39-1.39.39h-4.34v-3Zm5.46-3.13h-9.29v14.95h3.83v-5.89h4.04c.69,0,1.17.14,1.45.42.29.29.48.77.58,1.44.08.55.14,1.45.18,2.09.04.66.16,1.23.34,1.72l.08.22h4.06l-.41-.55c-.12-.16-.21-.37-.27-.61-.07-.27-.12-.56-.15-.86-.03-.32-.06-.62-.07-.92v-.06c-.02-.28-.03-.85-.04-1.07-.03-.38-.08-.75-.16-1.13-.08-.39-.21-.76-.38-1.08-.18-.33-.41-.63-.69-.88-.12-.1-.25-.19-.39-.27.53-.32.95-.73,1.23-1.22.38-.67.56-1.31.58-2.03,0-.59-.11-1.15-.32-1.66-.21-.51-.52-.97-.92-1.36-.4-.39-.88-.7-1.43-.92-.55-.22-1.18-.34-1.86-.34Zm91.92.04v2.07h.09c.52-.87,1.19-1.49,2.01-1.89.82-.39,1.67-.59,2.53-.59,1.09,0,1.99.15,2.68.45.7.3,1.25.71,1.66,1.23.4.53.68,1.17.85,1.93.16.76.24,1.6.24,2.52v9.15h-4.08v-8.4c0-1.23-.19-2.15-.57-2.75-.38-.61-1.06-.91-2.04-.91-1.11,0-1.92.33-2.42.99-.5.66-.75,1.75-.75,3.27v7.8h-4.09V2.22h3.89Zm-13.35,14.88l-2.65-9.99h-.06l-2.53,9.99h-4.23l-4.72-14.88h4.32l2.73,10.1h.06l2.47-10.1h3.97l2.53,10.07h.06l2.73-10.07h4.2l-4.69,14.88h-4.2Zm-18.66-6.92c-.26.09-.54.16-.83.21-.3.06-.61.11-.93.15-.33.04-.65.09-.98.14-.31.06-.61.14-.9.23-.3.1-.56.22-.78.39-.22.16-.4.37-.54.62-.13.25-.2.56-.2.95s.07.67.2.92c.13.25.32.45.55.59.23.14.5.24.81.3.31.06.62.09.95.09.8,0,1.43-.13,1.87-.4.44-.27.77-.59.98-.97.21-.37.34-.75.39-1.13.04-.38.07-.69.07-.92v-1.52c-.17.15-.39.27-.65.36Zm-8.07-5.77c.42-.64.96-1.14,1.61-1.53.65-.38,1.38-.66,2.2-.82.81-.16,1.63-.24,2.46-.24.75,0,1.51.05,2.28.16.77.1,1.46.31,2.1.62.63.31,1.15.73,1.56,1.28.4.55.6,1.27.6,2.18v7.74c0,.67.04,1.31.11,1.93.08.62.21,1.08.4,1.38h-4.14c-.08-.23-.14-.46-.19-.7-.05-.24-.08-.49-.1-.73-.65.67-1.42,1.14-2.3,1.41-.88.27-1.78.4-2.7.4-.71,0-1.37-.08-1.98-.26-.62-.17-1.15-.44-1.61-.8-.46-.37-.82-.83-1.08-1.38-.26-.56-.39-1.22-.39-1.99,0-.84.15-1.54.45-2.09.3-.55.68-.98,1.15-1.31.47-.32,1.01-.57,1.61-.73.6-.16,1.21-.29,1.83-.39.61-.09,1.22-.17,1.81-.23.6-.06,1.12-.14,1.58-.26.46-.12.83-.28,1.09-.5.27-.22.39-.54.37-.96,0-.44-.07-.79-.22-1.05-.14-.26-.33-.46-.57-.6-.24-.14-.52-.24-.84-.29-.31-.05-.65-.07-1.02-.07-.81,0-1.44.17-1.9.52-.46.35-.73.92-.81,1.73h-4.08c.06-.96.3-1.75.72-2.39Zm-7.48,9.61c.45-.27.81-.62,1.09-1.05.28-.43.47-.93.59-1.51.12-.58.17-1.16.17-1.76s-.06-1.18-.19-1.75c-.13-.58-.33-1.09-.62-1.54-.29-.45-.66-.82-1.11-1.1-.45-.28-1-.42-1.65-.42s-1.23.14-1.68.42c-.45.28-.82.64-1.09,1.08-.28.44-.47.95-.59,1.52-.12.58-.17,1.17-.17,1.78s.06,1.18.19,1.76c.12.57.32,1.08.6,1.51.28.43.65.78,1.1,1.05.46.27,1.02.4,1.67.4s1.24-.13,1.68-.4Zm-5.31-11.8v1.9h.06c.5-.81,1.13-1.39,1.9-1.76.77-.36,1.61-.55,2.53-.55,1.17,0,2.18.22,3.02.66.84.44,1.54,1.02,2.1,1.75.56.73.97,1.58,1.24,2.55.27.97.4,1.98.4,3.04,0,1-.13,1.95-.4,2.88-.27.92-.68,1.74-1.22,2.45-.54.71-1.23,1.28-2.04,1.7-.82.42-1.77.63-2.86.63-.92,0-1.77-.19-2.54-.56-.78-.37-1.41-.92-1.91-1.65h-.06v5.67h-4.08V2.22h3.88Zm-14.42,11.18c.19.32.42.58.71.78.28.2.62.35.99.45.37.1.76.14,1.16.14.29,0,.59-.03.91-.1.31-.07.61-.17.86-.32.26-.14.48-.34.65-.58.17-.24.26-.54.26-.91,0-.61-.4-1.07-1.22-1.38-.82-.3-1.95-.61-3.41-.92-.59-.13-1.17-.29-1.74-.47-.57-.18-1.07-.42-1.51-.72-.44-.3-.8-.67-1.07-1.12-.27-.45-.4-1-.4-1.65,0-.96.18-1.75.56-2.36.37-.61.87-1.1,1.48-1.45.61-.36,1.3-.6,2.07-.75.77-.15,1.55-.22,2.36-.22s1.58.08,2.34.23c.76.16,1.43.42,2.03.78.6.37,1.09.85,1.48,1.45.39.6.63,1.37.7,2.29h-3.88c-.06-.78-.36-1.32-.89-1.6-.54-.27-1.17-.42-1.9-.42-.23,0-.48.01-.75.04-.27.03-.51.09-.73.19-.22.1-.41.24-.56.42-.16.18-.23.43-.23.74,0,.36.14.66.41.89.27.23.62.42,1.05.56.43.14.92.27,1.48.39.56.12,1.12.24,1.7.37.59.13,1.17.3,1.74.49.57.19,1.07.45,1.51.76.44.32.8.71,1.06,1.18.27.47.4,1.05.4,1.74,0,.98-.2,1.8-.59,2.46-.39.66-.9,1.19-1.54,1.6-.63.4-1.36.69-2.17.85-.82.16-1.65.24-2.49.24s-1.71-.08-2.53-.26c-.83-.17-1.56-.46-2.2-.86-.65-.4-1.17-.94-1.58-1.6-.41-.66-.64-1.49-.68-2.49h3.88c0,.44.09.82.27,1.13Zm-9.8-7.7c-.49-.54-1.24-.8-2.23-.8-.65,0-1.19.11-1.63.33-.43.22-.78.49-1.03.82-.26.32-.44.67-.55,1.03-.1.36-.19.9-.19,1.23h6.65c-.1-1.06-.53-2.07-1.02-2.61Zm-4.62,7.83c.61.6,1.49.89,2.65.89.82,0,1.53-.21,2.12-.62.6-.41.96-.85,1.09-1.31h3.59c-.57,1.79-1.46,3.06-2.64,3.83-1.19.77-2.63,1.15-4.31,1.15-1.17,0-2.23-.19-3.16-.56-.94-.37-1.74-.91-2.39-1.6-.65-.69-1.15-1.51-1.51-2.47-.35-.96-.53-2.02-.53-3.17s.18-2.15.55-3.11c.36-.96.88-1.79,1.55-2.49.67-.7,1.47-1.25,2.4-1.65.93-.4,1.96-.61,3.1-.61,1.26,0,2.36.24,3.3.73.94.49,1.71,1.14,2.32,1.97.6.82,1.04,1.76,1.31,2.82.27,1.06.39,2.42.31,3.57h-10.73c.06,1.32.37,2.03.98,2.62Zm86.25,10.83v-1.24h5.51v1.24h-2.01v5.48h-1.48v-5.48h-2.02Zm-7.71-1.24l2.8,4.51h.02v-4.51h1.38v6.73h-1.48l-2.79-4.5h-.02v4.5h-1.39v-6.73h1.47Zm-5.48,0v1.24h-3.55v1.44h3.26v1.15h-3.26v1.65h3.63v1.25h-5.11v-6.73h5.03Zm-14.12,0l1.58,4.62h.02l1.49-4.62h2.08v6.73h-1.39v-4.77h-.01l-1.65,4.77h-1.14l-1.65-4.72h-.02v4.72h-1.38v-6.73h2.07Zm-10.22,0l2.81,4.51h.02v-4.51h1.38v6.73h-1.48l-2.79-4.5h-.02v4.5h-1.38v-6.73h1.47Zm-6.88,6.73h1.48v-6.73h-1.48v6.73Zm-5.64-2.6l-.85-2.47h-.02l-.87,2.47h1.74Zm-.09-4.12l2.51,6.73h-1.54l-.5-1.5h-2.52l-.53,1.5h-1.49l2.54-6.73h1.51Zm-11.4,1.24v-1.24h5.51v1.24h-2.02v5.48h-1.47v-5.48h-2.02Zm-5.64,1.8c.34,0,.59-.08.77-.23.16-.15.25-.39.25-.73s-.09-.56-.25-.71c-.18-.15-.43-.22-.77-.22h-1.62v1.9h1.62Zm.53-3.04c.3,0,.57.05.81.15.24.09.44.23.62.4.17.17.3.36.39.59.09.22.14.46.14.72,0,.4-.08.74-.25,1.03-.17.29-.44.51-.81.66v.02c.18.05.33.12.45.23.12.11.22.22.3.36.07.14.12.3.16.47.04.17.06.34.08.51,0,.11,0,.23.02.38,0,.14.02.29.03.44.02.15.05.29.08.43.03.13.08.25.16.34h-1.49c-.08-.22-.13-.47-.14-.76-.02-.29-.05-.58-.09-.85-.05-.35-.17-.61-.32-.77-.16-.16-.43-.25-.8-.25h-1.48v2.63h-1.47v-6.73h3.62Zm-7.33,0v1.24h-3.55v1.44h3.26v1.15h-3.26v1.65h3.62v1.25h-5.11v-6.73h5.03Zm-13.94,1.24v-1.24h5.51v1.24h-2.01v5.48h-1.48v-5.48h-2.02Zm-7.61-1.24l2.81,4.51h.02v-4.51h1.39v6.73h-1.48l-2.8-4.5h-.01v4.5h-1.39v-6.73h1.47Zm-5.18,0v1.24h-3.55v1.44h3.26v1.15h-3.26v1.65h3.63v1.25h-5.1v-6.73h5.03Zm-24.97.85c0-1.44-1.17-2.6-2.6-2.6s-2.6,1.16-2.6,2.6,1.16,2.6,2.6,2.6,2.6-1.17,2.6-2.6Zm0-7.86c0-1.43-1.17-2.6-2.6-2.6s-2.6,1.16-2.6,2.6,1.16,2.6,2.6,2.6,2.6-1.16,2.6-2.6Zm0-7.85c0-1.44-1.17-2.6-2.6-2.6s-2.6,1.16-2.6,2.6,1.16,2.6,2.6,2.6,2.6-1.16,2.6-2.6Zm7.85,7.85c0-1.43-1.16-2.6-2.6-2.6s-2.6,1.16-2.6,2.6,1.16,2.6,2.6,2.6,2.6-1.16,2.6-2.6Zm6.12-11.3v22.6c0,.71-.29,1.36-.76,1.83-.47.47-1.12.76-1.84.76H2.6C1.18,30,.03,28.86,0,27.45h0V4.8c0-.72.29-1.37.77-1.83.47-.47,1.12-.76,1.83-.76h23.15c1.43,0,2.6,1.16,2.6,2.6Z"/>
</svg>