<svg width="55" height="55" viewBox="0 0 55 55" fill="none" xmlns="http://www.w3.org/2000/svg">
<path d="M27.5 20.2437C23.5774 20.2437 20.2431 23.5779 20.2431 27.5006C20.2431 31.4233 23.5774 34.7575 27.5 34.7575C31.4227 34.7575 34.757 31.4233 34.757 27.5006C34.757 23.5779 31.4227 20.2437 27.5 20.2437Z" fill="white"/>
<path d="M36.8021 5.729H18.3959C11.2709 5.729 5.72919 11.2707 5.72919 18.1978V36.604C5.72919 43.729 11.2709 49.2707 18.3959 49.2707H36.8021C43.7292 49.2707 49.2709 43.729 49.2709 36.604V18.1978C49.2709 11.2707 43.7292 5.729 36.8021 5.729ZM27.5 38.979C21.1667 38.979 16.2188 33.8332 16.2188 27.6978C16.2188 21.5623 21.1667 16.2186 27.5 16.2186C33.8334 16.2186 38.7813 21.3644 38.7813 27.4998C38.7813 33.6353 33.8334 38.979 27.5 38.979ZM39.1771 18.5936C37.7917 18.5936 36.6042 17.4061 36.6042 16.0207C36.6042 14.6353 37.7917 13.4478 39.1771 13.4478C40.5625 13.4478 41.75 14.6353 41.75 16.0207C41.75 17.4061 40.5625 18.5936 39.1771 18.5936Z" fill="white"/>
</svg>
