<svg width="55" height="55" viewBox="0 0 55 55" fill="none" xmlns="http://www.w3.org/2000/svg">
<path d="M27.5049 9.73926C27.6002 9.73927 43.275 9.74274 47.2031 10.8066C49.3731 11.3847 51.0811 13.1013 51.6592 15.2891C52.7086 19.2466 52.6992 27.5 52.6992 27.5C52.6992 27.5576 52.696 35.7661 51.6504 39.71C51.0723 41.8888 49.3643 43.6054 47.1943 44.1924C43.2634 45.2507 27.4951 45.251 27.4951 45.251C27.3999 45.251 11.716 45.2474 7.79688 44.1924C5.62689 43.6143 3.91889 41.8977 3.34082 39.71C2.29519 35.7661 2.29201 27.5576 2.29199 27.5C2.29199 27.5 2.29135 19.2468 3.34961 15.2803C3.92768 13.1014 5.63568 11.3848 7.80566 10.7979C11.7367 9.73956 27.5049 9.73926 27.5049 9.73926ZM22.3467 34.9971L35.5264 27.5L22.3467 20.0029V34.9971Z" fill="white"/>
</svg>
