<svg width="55" height="55" viewBox="0 0 55 55" fill="none" xmlns="http://www.w3.org/2000/svg">
<g clip-path="url(#clip0_19_661)">
<path d="M47.5615 16.0496V23.5347C47.5615 23.5347 41.0924 23.8872 35.971 19.6159V36.7632C35.971 37.4267 35.9088 38.0695 35.7844 38.733C35.1624 41.781 32.5706 49.4941 22.3692 50.3857C21.8509 50.4272 21.3325 50.4272 20.8142 50.3857C17.9114 50.1369 9.22365 48.5196 7.5027 38.0695C7.29536 36.8669 7.27462 35.6436 7.46123 34.441C7.97959 30.8747 11.6703 21.0673 23.7999 22.2492V29.6928C23.7999 29.6928 18.5956 28.4488 16.066 32.4712C14.739 34.5861 14.5939 37.2401 15.7135 39.4587C16.5636 41.1589 18.2846 42.9006 21.6435 43.025C23.0535 43.025 27.5321 42.5274 28.5274 36.9913V4.5835H35.971C35.971 4.5835 35.971 15.3239 47.5822 16.0496H47.5615Z" fill="white"/>
</g>
<defs>
<clipPath id="clip0_19_661">
<rect width="55" height="55" fill="white"/>
</clipPath>
</defs>
</svg>
