<?xml version="1.0" encoding="UTF-8"?>
<svg id="Layer_2" data-name="Layer 2" xmlns="http://www.w3.org/2000/svg" viewBox="0 0 370.93 20.87">
  <defs>
    <style>
      .cls-1 {
        fill: #fff;
        stroke-width: 0px;
      }
    </style>
  </defs>
  <g id="Layer_1-2" data-name="Layer 1">
    <g>
      <path class="cls-1" d="m29.56,0c-7.5,0-12,4.63-12,10.36s4.49,10.35,12,10.35,12.01-4.63,12.01-10.35S37.06,0,29.56,0Zm0,18.49c-3.59,0-6.33-3.65-6.33-8.13s2.74-8.13,6.33-8.13,6.33,3.64,6.33,8.13-2.73,8.13-6.33,8.13Z"/>
      <polygon class="cls-1" points="42.58 3.05 50.48 3.05 50.48 19.85 56.44 19.85 56.44 3.05 63.1 3.05 63.1 .76 42.58 .76 42.58 3.05"/>
      <polygon class="cls-1" points="65.28 3.05 71.93 3.05 71.93 19.85 77.88 19.85 77.88 3.05 85.79 3.05 85.79 .76 65.28 .76 65.28 3.05"/>
      <path class="cls-1" d="m5.71,16.43V.76H0v16.82c0,1.26,1.02,2.28,2.27,2.28h14.6v-2.29H6.85c-.63,0-1.14-.51-1.14-1.14Z"/>
      <path class="cls-1" d="m89.02,3.03v14.55c0,1.26,1.02,2.28,2.28,2.28h15.57v-2.26h-10.99c-.64,0-1.14-.51-1.14-1.13v-5.63h11.95v-2.24h-11.95v-4.44c0-.62.5-1.13,1.14-1.13h10.99V.76h-15.57c-1.26,0-2.28,1.01-2.28,2.27Z"/>
    </g>
    <g>
      <path class="cls-1" d="m139.24,15.27c-1.43,2.06-3.56,3.14-6.21,3.14-4.4,0-7.58-3.3-7.58-7.85s3.18-7.85,7.58-7.85c2.55,0,4.66,1.05,5.95,2.96l.17.24,2.05-1.49-.16-.23c-1.71-2.57-4.48-3.92-8.01-3.92-5.88,0-10.32,4.43-10.32,10.3s4.44,10.3,10.32,10.3c3.53,0,6.47-1.47,8.3-4.15l.15-.24-2.08-1.45-.16.24Z"/>
      <path class="cls-1" d="m157.37.28c-5.89,0-10.33,4.43-10.33,10.3s4.43,10.3,10.33,10.3,10.36-4.42,10.36-10.3S163.27.28,157.37.28m0,18.14c-4.4,0-7.59-3.3-7.59-7.85s3.19-7.85,7.59-7.85,7.62,3.31,7.62,7.85-3.21,7.85-7.62,7.85"/>
      <path class="cls-1" d="m188.21,14c0,.36.03.8.05,1.2-.23-.33-.52-.7-.74-.98L175.75.3h-.77v20.35h2.54V7.15c0-.33-.03-.75-.07-1.15.24.33.51.67.74.93l11.76,13.91h.77V.5h-2.5v13.5Z"/>
      <path class="cls-1" d="m214.49,15.27c-1.43,2.06-3.57,3.14-6.21,3.14-4.39,0-7.59-3.3-7.59-7.85s3.2-7.85,7.59-7.85c2.56,0,4.65,1.05,5.95,2.96l.16.24,2.05-1.49-.15-.23c-1.71-2.57-4.48-3.92-8.01-3.92-5.88,0-10.32,4.43-10.32,10.3s4.44,10.3,10.32,10.3c3.53,0,6.47-1.47,8.29-4.15l.17-.24-2.09-1.45-.15.24Z"/>
      <polygon class="cls-1" points="226.21 11.73 234.98 11.73 234.98 9.34 226.21 9.34 226.21 2.93 236.04 2.93 236.04 .5 223.56 .5 223.56 20.65 236.44 20.65 236.44 18.22 226.21 18.22 226.21 11.73"/>
      <path class="cls-1" d="m257.25,6.78c0-3.94-2.71-6.28-7.25-6.28h-6.16v20.14h2.65v-7.68h3.28c.24,0,.51,0,.75-.02l4.49,7.7h3.12l-4.86-8.18c2.56-.92,3.98-2.92,3.98-5.68m-10.76-3.86h3.4c3.11,0,4.62,1.26,4.62,3.86s-1.55,3.82-4.62,3.82h-3.4V2.93Z"/>
      <polygon class="cls-1" points="262.59 2.93 268.6 2.93 268.6 20.65 271.25 20.65 271.25 2.93 277.26 2.93 277.26 .5 262.59 .5 262.59 2.93"/>
      <polygon class="cls-1" points="306.86 9.63 296.97 9.63 296.97 .5 294.31 .5 294.31 20.65 296.97 20.65 296.97 12.08 306.86 12.08 306.86 20.65 309.51 20.65 309.51 .5 306.86 .5 306.86 9.63"/>
      <path class="cls-1" d="m324.44.3l-8.34,20.35h2.67l1.75-4.41h8.59l1.78,4.41h2.81L325.18.3h-.73Zm3.7,13.58h-6.68l2.83-7.1c.18-.43.35-.95.49-1.39.16.47.33,1.01.5,1.41l2.86,7.08Z"/>
      <polygon class="cls-1" points="342.93 .5 340.28 .5 340.28 20.65 352.16 20.65 352.16 18.22 342.93 18.22 342.93 .5"/>
      <polygon class="cls-1" points="361.69 18.22 361.69 .5 359.04 .5 359.04 20.65 370.93 20.65 370.93 18.22 361.69 18.22"/>
    </g>
  </g>
</svg>