<?xml version="1.0" encoding="UTF-8"?>
<svg id="_레이어_1" data-name="레이어 1" xmlns="http://www.w3.org/2000/svg" viewBox="0 0 124 25.38">
  <defs>
    <style>
      .cls-1 {
        fill: #fff;
      }
    </style>
  </defs>
  <g>
    <path class="cls-1" d="M15.08,0c-3.74,0-5.97,2.31-5.97,5.17s2.23,5.17,5.97,5.17,5.97-2.31,5.97-5.17S18.82,0,15.08,0ZM15.08,9.23c-1.79,0-3.14-1.83-3.14-4.06s1.35-4.06,3.14-4.06,3.14,1.83,3.14,4.06-1.35,4.06-3.14,4.06Z"/>
    <polygon class="cls-1" points="21.56 1.51 25.5 1.51 25.5 9.91 28.44 9.91 28.44 1.51 31.79 1.51 31.79 .4 21.56 .4 21.56 1.51"/>
    <polygon class="cls-1" points="32.86 1.51 36.2 1.51 36.2 9.91 39.15 9.91 39.15 1.51 43.08 1.51 43.08 .4 32.86 .4 32.86 1.51"/>
    <path class="cls-1" d="M3.18,8.2V.4H.32v8.35c0,.64.52,1.11,1.11,1.11h7.28v-1.11H3.74c-.28,0-.56-.24-.56-.56Z"/>
    <path class="cls-1" d="M44.71,1.51v7.24c0,.64.52,1.11,1.15,1.11h7.76v-1.11h-5.49c-.32,0-.56-.24-.56-.56v-2.78h5.97v-1.11h-5.97v-2.23c0-.32.24-.56.56-.56h5.49V.4h-7.76c-.68,0-1.15.48-1.15,1.11Z"/>
  </g>
  <g>
    <path class="cls-1" d="M8.27,22.56c-.72,1.03-1.79,1.59-3.1,1.59-2.19,0-3.78-1.63-3.78-3.94s1.59-3.94,3.78-3.94c1.27,0,2.31.52,2.98,1.47l.08.12,1.03-.76-.08-.12c-.84-1.27-2.23-1.95-4.02-1.95-2.94,0-5.17,2.23-5.17,5.13s2.23,5.13,5.17,5.13c1.75,0,3.22-.76,4.14-2.07l.08-.12-1.03-.72-.08.16Z"/>
    <path class="cls-1" d="M17.34,24.15c-2.19,0-3.78-1.63-3.78-3.94s1.59-3.94,3.78-3.94,3.82,1.63,3.82,3.94c-.04,2.27-1.63,3.94-3.82,3.94M17.34,15.08c-2.94,0-5.17,2.23-5.17,5.13s2.23,5.13,5.17,5.13,5.17-2.23,5.17-5.13-2.23-5.13-5.17-5.13"/>
    <path class="cls-1" d="M32.74,21.92c0,.16,0,.4.04.6-.12-.16-.28-.36-.36-.48l-5.93-6.96h-.4v10.14h1.27v-6.72c0-.16,0-.4-.04-.56.12.16.24.32.36.48l5.89,6.96h.4v-10.14h-1.27v6.68h.04Z"/>
    <path class="cls-1" d="M45.87,22.56c-.72,1.03-1.79,1.59-3.1,1.59-2.19,0-3.78-1.63-3.78-3.94s1.59-3.94,3.78-3.94c1.27,0,2.31.52,2.98,1.47l.08.12,1.03-.76-.08-.12c-.88-1.27-2.23-1.95-4.02-1.95-2.94,0-5.17,2.23-5.17,5.13s2.23,5.13,5.17,5.13c1.75,0,3.22-.76,4.14-2.07l.08-.12-1.03-.72-.08.16Z"/>
    <polygon class="cls-1" points="51.72 20.81 56.09 20.81 56.09 19.61 51.72 19.61 51.72 16.39 56.65 16.39 56.65 15.2 50.4 15.2 50.4 25.26 56.85 25.26 56.85 24.03 51.72 24.03 51.72 20.81"/>
    <path class="cls-1" d="M61.86,16.39h1.71c1.55,0,2.31.64,2.31,1.91s-.8,1.91-2.31,1.91h-1.71v-3.82ZM67.23,18.34c0-1.95-1.35-3.14-3.62-3.14h-3.06v10.06h1.31v-3.82h2.03l2.23,3.86h1.55l-2.43-4.1c1.27-.48,1.99-1.51,1.99-2.86"/>
    <polygon class="cls-1" points="69.9 16.39 72.92 16.39 72.92 25.26 74.23 25.26 74.23 16.39 77.22 16.39 77.22 15.2 69.9 15.2 69.9 16.39"/>
    <polygon class="cls-1" points="92.02 19.73 87.08 19.73 87.08 15.2 85.73 15.2 85.73 25.26 87.08 25.26 87.08 20.97 92.02 20.97 92.02 25.26 93.33 25.26 93.33 15.2 92.02 15.2 92.02 19.73"/>
    <path class="cls-1" d="M102.64,21.88h-3.34l1.43-3.54c.08-.2.16-.48.24-.68.08.24.16.52.24.72l1.43,3.5ZM100.81,15.08l-4.18,10.14h1.35l.88-2.19h4.3l.88,2.19h1.39l-4.26-10.14h-.36Z"/>
    <polygon class="cls-1" points="110.04 15.2 108.72 15.2 108.72 25.26 114.65 25.26 114.65 24.03 110.04 24.03 110.04 15.2"/>
    <polygon class="cls-1" points="119.39 24.03 119.39 15.2 118.07 15.2 118.07 25.26 124 25.26 124 24.03 119.39 24.03"/>
  </g>
</svg>