<?xml version="1.0" encoding="UTF-8"?>
<svg id="Layer_1" data-name="Layer 1" xmlns="http://www.w3.org/2000/svg" viewBox="0 0 231.75 47.69">
  <defs>
    <style>
      .cls-1 {
        stroke-width: .5px;
      }

      .cls-1, .cls-2 {
        fill: #ae9b73;
        stroke: #ae9b73;
        stroke-miterlimit: 10;
      }

      .cls-2 {
        stroke-width: .25px;
      }
    </style>
  </defs>
  <path class="cls-2" d="m28.32.12c-6.97,0-11.15,4.31-11.15,9.63s4.18,9.62,11.15,9.62,11.16-4.3,11.16-9.62S35.29.12,28.32.12Zm0,17.18c-3.34,0-5.88-3.39-5.88-7.55s2.55-7.55,5.88-7.55,5.88,3.38,5.88,7.55-2.54,7.55-5.88,7.55Z"/>
  <polygon class="cls-2" points="40.42 2.96 47.76 2.96 47.76 18.58 53.29 18.58 53.29 2.96 59.48 2.96 59.48 .83 40.42 .83 40.42 2.96"/>
  <polygon class="cls-2" points="61.5 2.96 67.69 2.96 67.69 18.58 73.22 18.58 73.22 2.96 80.57 2.96 80.57 .83 61.5 .83 61.5 2.96"/>
  <path class="cls-2" d="m6.16,15.4V.83H.85v15.63c0,1.17.95,2.11,2.11,2.11h13.57v-2.12H7.22c-.58,0-1.06-.47-1.06-1.06Z"/>
  <path class="cls-2" d="m83.57,2.94v13.52c0,1.17.95,2.11,2.12,2.11h14.47v-2.1h-10.21c-.59,0-1.06-.48-1.06-1.05v-5.23h11.1v-2.08h-11.1V3.98c0-.58.46-1.05,1.06-1.05h10.21V.83h-14.47c-1.17,0-2.12.94-2.12,2.11Z"/>
  <path class="cls-1" d="m15.65,42.22c-1.33,1.92-3.32,2.94-5.78,2.94-4.1,0-7.07-3.07-7.07-7.31s2.97-7.31,7.07-7.31c2.37,0,4.34.97,5.54,2.74l.16.23,1.9-1.39-.14-.22c-1.59-2.39-4.17-3.65-7.46-3.65-5.48,0-9.62,4.12-9.62,9.6s4.14,9.59,9.62,9.59c3.28,0,6.03-1.37,7.73-3.87l.15-.22-1.94-1.35-.16.22Z"/>
  <path class="cls-1" d="m32.54,45.16c-4.1,0-7.07-3.07-7.07-7.31s2.97-7.31,7.07-7.31,7.1,3.07,7.1,7.31-2.98,7.31-7.1,7.31m0-16.91c-5.49,0-9.62,4.12-9.62,9.6s4.13,9.59,9.62,9.59,9.65-4.13,9.65-9.59-4.15-9.6-9.65-9.6"/>
  <path class="cls-1" d="m61.27,41.03c0,.34.03.75.05,1.12-.23-.31-.48-.65-.7-.91l-10.96-12.96h-.71v18.95h2.36v-12.57c0-.31-.03-.7-.06-1.06.22.3.48.62.68.86l10.96,12.96h.72v-18.95h-2.34v12.57Z"/>
  <path class="cls-1" d="m85.75,42.22c-1.32,1.92-3.32,2.94-5.78,2.94-4.1,0-7.07-3.07-7.07-7.31s2.97-7.31,7.07-7.31c2.37,0,4.33.97,5.54,2.74l.16.23,1.91-1.39-.14-.22c-1.6-2.39-4.17-3.65-7.46-3.65-5.49,0-9.62,4.12-9.62,9.6s4.13,9.59,9.62,9.59c3.28,0,6.03-1.37,7.72-3.87l.15-.22-1.94-1.35-.16.22Z"/>
  <polygon class="cls-1" points="96.68 38.91 104.85 38.91 104.85 36.69 96.68 36.69 96.68 30.72 105.84 30.72 105.84 28.46 94.21 28.46 94.21 47.22 106.22 47.22 106.22 44.97 96.68 44.97 96.68 38.91"/>
  <path class="cls-1" d="m115.57,30.72h3.16c2.9,0,4.31,1.18,4.31,3.59s-1.45,3.56-4.31,3.56h-3.16v-7.15Zm10.02,3.59c0-3.66-2.53-5.85-6.75-5.85h-5.74v18.76h2.47v-7.15h3.05c.23,0,.48,0,.71-.01l4.17,7.17h2.91l-4.52-7.62c2.39-.85,3.7-2.72,3.7-5.3"/>
  <polygon class="cls-1" points="130.57 30.72 136.17 30.72 136.17 47.22 138.64 47.22 138.64 30.72 144.24 30.72 144.24 28.46 130.57 28.46 130.57 30.72"/>
  <polygon class="cls-1" points="171.82 36.96 162.6 36.96 162.6 28.46 160.13 28.46 160.13 47.22 162.6 47.22 162.6 39.24 171.82 39.24 171.82 47.22 174.28 47.22 174.28 28.46 171.82 28.46 171.82 36.96"/>
  <path class="cls-1" d="m191.64,40.92h-6.22l2.64-6.62c.17-.4.33-.88.46-1.3.13.44.31.94.45,1.32l2.66,6.6Zm-3.45-12.64l-7.78,18.95h2.49l1.64-4.1h7.99l1.66,4.1h2.62l-7.94-18.95h-.68Z"/>
  <polygon class="cls-1" points="205.42 28.46 202.95 28.46 202.95 47.22 214.03 47.22 214.03 44.97 205.42 44.97 205.42 28.46"/>
  <polygon class="cls-1" points="222.89 44.97 222.89 28.46 220.42 28.46 220.42 47.22 231.5 47.22 231.5 44.97 222.89 44.97"/>
</svg>