<?xml version="1.0" encoding="UTF-8"?>
<svg id="Layer_1" data-name="Layer 1" xmlns="http://www.w3.org/2000/svg" viewBox="0 0 114.5 23.7">
  <defs>
    <style>
      .cls-1 {
        stroke-width: .5px;
      }

      .cls-1, .cls-2 {
        fill: #ae9b73;
        stroke: #ae9b73;
        stroke-miterlimit: 10;
      }

      .cls-2 {
        stroke-width: .25px;
      }
    </style>
  </defs>
  <path class="cls-2" d="m14.09.12c-3.44,0-5.49,2.12-5.49,4.75s2.06,4.74,5.49,4.74,5.5-2.12,5.5-4.74S17.52.12,14.09.12Zm0,8.47c-1.65,0-2.9-1.67-2.9-3.72s1.25-3.72,2.9-3.72,2.9,1.67,2.9,3.72-1.25,3.72-2.9,3.72Z"/>
  <polygon class="cls-2" points="20.05 1.52 23.67 1.52 23.67 9.22 26.4 9.22 26.4 1.52 29.45 1.52 29.45 .48 20.05 .48 20.05 1.52"/>
  <polygon class="cls-2" points="30.45 1.52 33.5 1.52 33.5 9.22 36.22 9.22 36.22 1.52 39.84 1.52 39.84 .48 30.45 .48 30.45 1.52"/>
  <path class="cls-2" d="m3.16,7.65V.48H.55v7.7c0,.58.47,1.04,1.04,1.04h6.69v-1.05H3.69c-.29,0-.52-.23-.52-.52Z"/>
  <path class="cls-2" d="m41.33,1.51v6.66c0,.58.47,1.04,1.04,1.04h7.13v-1.03h-5.03c-.29,0-.52-.24-.52-.52v-2.58h5.47v-1.03h-5.47v-2.04c0-.29.23-.52.52-.52h5.03V.48h-7.13c-.58,0-1.04.46-1.04,1.04Z"/>
  <path class="cls-1" d="m7.84,20.88c-.65.95-1.64,1.45-2.85,1.45-2.02,0-3.49-1.52-3.49-3.6s1.47-3.6,3.49-3.6c1.17,0,2.14.48,2.73,1.35l.08.12.94-.68-.07-.11c-.79-1.18-2.06-1.8-3.68-1.8-2.7,0-4.74,2.03-4.74,4.73s2.04,4.73,4.74,4.73c1.62,0,2.97-.68,3.81-1.91l.07-.11-.96-.67-.08.11Z"/>
  <path class="cls-1" d="m16.17,22.32c-2.02,0-3.49-1.52-3.49-3.6s1.47-3.6,3.49-3.6,3.5,1.51,3.5,3.6-1.47,3.6-3.5,3.6m0-8.34c-2.7,0-4.74,2.03-4.74,4.73s2.04,4.73,4.74,4.73,4.76-2.03,4.76-4.73-2.04-4.73-4.76-4.73"/>
  <path class="cls-1" d="m30.33,20.29c0,.17.01.37.03.55-.11-.15-.24-.32-.35-.45l-5.4-6.39h-.35v9.34h1.16v-6.2c0-.15-.01-.35-.03-.52.11.15.23.31.34.42l5.4,6.39h.35v-9.34h-1.15v6.2Z"/>
  <path class="cls-1" d="m42.4,20.88c-.65.95-1.64,1.45-2.85,1.45-2.02,0-3.49-1.52-3.49-3.6s1.47-3.6,3.49-3.6c1.17,0,2.14.48,2.73,1.35l.08.12.94-.68-.07-.11c-.79-1.18-2.06-1.8-3.68-1.8-2.71,0-4.74,2.03-4.74,4.73s2.04,4.73,4.74,4.73c1.62,0,2.97-.68,3.81-1.91l.08-.11-.96-.67-.08.11Z"/>
  <polygon class="cls-1" points="47.79 19.25 51.81 19.25 51.81 18.15 47.79 18.15 47.79 15.21 52.3 15.21 52.3 14.09 46.57 14.09 46.57 23.34 52.49 23.34 52.49 22.23 47.79 22.23 47.79 19.25"/>
  <path class="cls-1" d="m57.1,15.21h1.56c1.43,0,2.13.58,2.13,1.77s-.72,1.76-2.13,1.76h-1.56v-3.53Zm4.94,1.77c0-1.8-1.25-2.88-3.33-2.88h-2.83v9.25h1.22v-3.53h1.5c.12,0,.24,0,.35,0l2.06,3.53h1.43l-2.23-3.76c1.18-.42,1.82-1.34,1.82-2.61"/>
  <polygon class="cls-1" points="64.49 15.21 67.26 15.21 67.26 23.34 68.47 23.34 68.47 15.21 71.24 15.21 71.24 14.09 64.49 14.09 64.49 15.21"/>
  <polygon class="cls-1" points="84.83 18.28 80.28 18.28 80.28 14.09 79.07 14.09 79.07 23.34 80.28 23.34 80.28 19.41 84.83 19.41 84.83 23.34 86.04 23.34 86.04 14.09 84.83 14.09 84.83 18.28"/>
  <path class="cls-1" d="m94.6,20.24h-3.07l1.3-3.26c.08-.2.16-.44.23-.64.07.22.15.47.22.65l1.31,3.25Zm-1.7-6.23l-3.83,9.34h1.23l.81-2.02h3.94l.82,2.02h1.29l-3.91-9.34h-.34Z"/>
  <polygon class="cls-1" points="101.4 14.09 100.18 14.09 100.18 23.34 105.64 23.34 105.64 22.23 101.4 22.23 101.4 14.09"/>
  <polygon class="cls-1" points="110.01 22.23 110.01 14.09 108.79 14.09 108.79 23.34 114.25 23.34 114.25 22.23 110.01 22.23"/>
</svg>