<?xml version="1.0" encoding="UTF-8"?>
<svg id="Layer_1" data-name="Layer 1" xmlns="http://www.w3.org/2000/svg" viewBox="0 0 380.84 704.87">
  <defs>
    <style>
      .cls-1 {
        fill: #666;
      }

      .cls-1, .cls-2, .cls-3, .cls-4 {
        stroke-width: 0px;
      }

      .cls-2 {
        fill: #646569;
      }

      .cls-5 {
        opacity: .6;
      }

      .cls-3 {
        fill: #fff;
      }

      .cls-4 {
        fill: #ec2127;
      }
    </style>
  </defs>
  <g>
    <path class="cls-4" d="m39.48,176.48c-7.5,0-12,4.63-12,10.36s4.49,10.35,12,10.35,12.01-4.63,12.01-10.35-4.5-10.36-12.01-10.36Zm0,18.49c-3.59,0-6.33-3.65-6.33-8.13s2.74-8.13,6.33-8.13,6.33,3.64,6.33,8.13-2.73,8.13-6.33,8.13Z"/>
    <polygon class="cls-4" points="52.5 179.53 60.4 179.53 60.4 196.34 66.36 196.34 66.36 179.53 73.02 179.53 73.02 177.24 52.5 177.24 52.5 179.53"/>
    <polygon class="cls-4" points="75.2 179.53 81.85 179.53 81.85 196.34 87.8 196.34 87.8 179.53 95.71 179.53 95.71 177.24 75.2 177.24 75.2 179.53"/>
    <path class="cls-4" d="m15.63,192.92v-15.67h-5.71v16.82c0,1.26,1.02,2.28,2.27,2.28h14.6v-2.29h-10.02c-.63,0-1.14-.51-1.14-1.14Z"/>
    <path class="cls-4" d="m98.94,179.51v14.55c0,1.26,1.02,2.28,2.28,2.28h15.57v-2.26h-10.99c-.64,0-1.14-.51-1.14-1.13v-5.63h11.95v-2.24h-11.95v-4.44c0-.62.5-1.13,1.14-1.13h10.99v-2.26h-15.57c-1.26,0-2.28,1.01-2.28,2.27Z"/>
    <g>
      <path class="cls-2" d="m149.16,191.76c-1.43,2.06-3.56,3.14-6.21,3.14-4.4,0-7.58-3.3-7.58-7.85s3.18-7.85,7.58-7.85c2.55,0,4.66,1.05,5.95,2.96l.17.24,2.05-1.49-.16-.23c-1.71-2.57-4.48-3.92-8.01-3.92-5.88,0-10.32,4.43-10.32,10.3s4.44,10.3,10.32,10.3c3.53,0,6.47-1.47,8.3-4.15l.15-.24-2.08-1.45-.16.24Z"/>
      <path class="cls-2" d="m167.29,176.76c-5.89,0-10.33,4.43-10.33,10.3s4.43,10.3,10.33,10.3,10.36-4.42,10.36-10.3-4.46-10.3-10.36-10.3m0,18.14c-4.4,0-7.59-3.3-7.59-7.85s3.19-7.85,7.59-7.85,7.62,3.31,7.62,7.85-3.21,7.85-7.62,7.85"/>
      <path class="cls-2" d="m198.13,190.48c0,.36.03.8.05,1.2-.23-.33-.52-.7-.74-.98l-11.77-13.91h-.77v20.35h2.54v-13.5c0-.33-.03-.75-.07-1.15.24.33.51.67.74.93l11.76,13.91h.77v-20.34h-2.5v13.5Z"/>
      <path class="cls-2" d="m224.41,191.76c-1.43,2.06-3.57,3.14-6.21,3.14-4.39,0-7.59-3.3-7.59-7.85s3.2-7.85,7.59-7.85c2.56,0,4.65,1.05,5.95,2.96l.16.24,2.05-1.49-.15-.23c-1.71-2.57-4.48-3.92-8.01-3.92-5.88,0-10.32,4.43-10.32,10.3s4.44,10.3,10.32,10.3c3.53,0,6.47-1.47,8.29-4.15l.17-.24-2.09-1.45-.15.24Z"/>
      <polygon class="cls-2" points="236.13 188.21 244.9 188.21 244.9 185.82 236.13 185.82 236.13 179.41 245.96 179.41 245.96 176.98 233.48 176.98 233.48 197.13 246.36 197.13 246.36 194.71 236.13 194.71 236.13 188.21"/>
      <path class="cls-2" d="m267.17,183.27c0-3.94-2.71-6.28-7.25-6.28h-6.16v20.14h2.65v-7.68h3.28c.24,0,.51,0,.75-.02l4.49,7.7h3.12l-4.86-8.18c2.56-.92,3.98-2.92,3.98-5.68m-10.76-3.86h3.4c3.11,0,4.62,1.26,4.62,3.86s-1.55,3.82-4.62,3.82h-3.4v-7.68Z"/>
      <polygon class="cls-2" points="272.51 179.41 278.52 179.41 278.52 197.13 281.17 197.13 281.17 179.41 287.18 179.41 287.18 176.98 272.51 176.98 272.51 179.41"/>
      <polygon class="cls-2" points="316.78 186.11 306.89 186.11 306.89 176.98 304.23 176.98 304.23 197.13 306.89 197.13 306.89 188.56 316.78 188.56 316.78 197.13 319.43 197.13 319.43 176.98 316.78 176.98 316.78 186.11"/>
      <path class="cls-2" d="m334.36,176.78l-8.34,20.35h2.67l1.75-4.41h8.59l1.78,4.41h2.81l-8.52-20.35h-.73Zm3.7,13.58h-6.68l2.83-7.1c.18-.43.35-.95.49-1.39.16.47.33,1.01.5,1.41l2.86,7.08Z"/>
      <polygon class="cls-2" points="352.85 176.98 350.2 176.98 350.2 197.13 362.08 197.13 362.08 194.71 352.85 194.71 352.85 176.98"/>
      <polygon class="cls-2" points="371.61 194.71 371.61 176.98 368.96 176.98 368.96 197.13 380.84 197.13 380.84 194.71 371.61 194.71"/>
    </g>
  </g>
  <g>
    <path class="cls-4" d="m90.38,1.66v41.81h6.26V1.66h-6.26Zm-10.01,15.09h-7.83v3.73h7.83v8.79c-1.53.6-2.9.92-4.93.92h-8.9c-.83,0-1.5-.67-1.5-1.5V7.87h11.42v-3.01h-17.9v25.36c0,1.65,1.34,3,3,3h13.88c2.11,0,3.82-.38,4.93-1.08v11.33h6.25V1.66h-6.25v15.09Z"/>
    <path class="cls-4" d="m33.54,23.74v-4.12h13.76v-3h-25.92c-.83,0-1.51-.67-1.51-1.5v-2.63h26.87V2.37H13.42v3.01h26.86v4.1H13.42v7.15c0,1.66,1.34,3,3,3h10.65v4.12H9.92v3.02h40.87v-3.02h-17.25Zm.18,4.93h-7.24c-1.91,7.95-11.33,11.96-14.79,12.46l1.8,2.67c3.53-.43,11.57-3.32,16.61-8.82,5.03,5.5,13.08,8.39,16.61,8.82l1.8-2.67c-3.45-.5-12.87-4.51-14.79-12.46Z"/>
    <path class="cls-4" d="m147.99,26.64h-42.15v-3.11h13.93v-6.88h6.23v6.88h22v3.11ZM110.71,2.88h31.11v10.58c0,2.6-.37,5.85-1.63,7.99h-5.38c.65-2.18.93-5.06.93-7.66h-25.02v-3.02h25.02v-4.87h-25.02v-3.02Zm6.36,35.7c0,.79,0,1.53,1.58,1.53h24.7v3.06h-29.25c-3.16,0-3.16-2.22-3.16-3.8v-9.56h6.13v8.77Z"/>
    <path class="cls-4" d="m167.44,12.39c0,8.36,6.04,14.9,11.33,17.32l-2.41,2.32c-2.88-.74-8.73-4.41-11.93-9.57-3.02,5.21-8.87,8.78-11.98,9.52l-2.32-2.28c5.43-2.32,10.82-8.68,10.82-17.27V2.83h6.5v9.57Zm5.99,1.07h9.52V1.66h6.27v41.51h-6.27v-26.65h-9.52v-3.06Z"/>
    <path class="cls-4" d="m238.94,32.54v3.02h-42.01v-3.02h42.01Zm-5.71-29.62v3.02h-25.21v6.5h25.21v3.02h-25.21v5.2c0,.93.51,1.54,1.53,1.54h24.38v2.97h-28.93c-1.95,0-3.06-1.26-3.06-2.93V2.92h31.29Z"/>
    <path class="cls-4" d="m266.15,19.68v2.51h17.83v3.01h-42.01v-3.01h17.73v-2.46c-6.08-.84-9.05-3.85-9.05-7.57,0-2.28,1.16-4.09,2.97-5.39h-7.47v-2.88h13.65V0h6.5v3.9h13.37v2.88h-7.85c1.86,1.3,3.02,3.11,3.02,5.39,0,4.69-4.5,6.82-8.68,7.52Zm-15.97,23.91c-1.72,0-3.2-1.3-3.2-3.07v-6.22h25.12v-3.02h-25.12v-3.07h31.34v9.1h-25.16v1.95c0,.93.37,1.25,1.21,1.25h24.56v3.07h-28.74Zm12.63-26.6c3.43,0,5.76-1.9,5.76-5.02s-2.32-5.01-5.76-5.01-5.95,1.9-5.95,5.01,2.51,5.02,5.95,5.02Z"/>
  </g>
  <g>
    <path class="cls-3" d="m40.11,85.24c-7.5,0-11.99,4.63-11.99,10.35s4.49,10.34,11.99,10.34,12-4.62,12-10.34-4.5-10.35-12-10.35Zm0,18.48c-3.59,0-6.33-3.65-6.33-8.12s2.74-8.12,6.33-8.12,6.33,3.63,6.33,8.12-2.73,8.12-6.33,8.12Z"/>
    <polygon class="cls-3" points="53.12 88.29 61.02 88.29 61.02 105.08 66.97 105.08 66.97 88.29 73.63 88.29 73.63 86 53.12 86 53.12 88.29"/>
    <polygon class="cls-3" points="75.8 88.29 82.45 88.29 82.45 105.08 88.4 105.08 88.4 88.29 96.3 88.29 96.3 86 75.8 86 75.8 88.29"/>
    <path class="cls-3" d="m16.28,101.66v-15.66h-5.71v16.81c0,1.25,1.02,2.27,2.27,2.27h14.59v-2.28h-10.02c-.63,0-1.14-.51-1.14-1.14Z"/>
    <path class="cls-3" d="m99.53,88.27v14.54c0,1.25,1.02,2.27,2.28,2.27h15.56v-2.26h-10.98c-.64,0-1.14-.51-1.14-1.13v-5.62h11.94v-2.24h-11.94v-4.44c0-.62.5-1.13,1.14-1.13h10.98v-2.26h-15.56c-1.25,0-2.28,1.01-2.28,2.27Z"/>
    <path class="cls-3" d="m26.49,130.51c-1.43,2.07-3.58,3.16-6.22,3.16-4.41,0-7.61-3.31-7.61-7.86s3.2-7.86,7.61-7.86c2.55,0,4.67,1.05,5.96,2.95l.17.25,2.05-1.49-.15-.23c-1.71-2.57-4.49-3.93-8.02-3.93-5.9,0-10.35,4.43-10.35,10.32s4.45,10.32,10.35,10.32c3.53,0,6.48-1.48,8.31-4.16l.16-.24-2.09-1.46-.17.24Z"/>
    <path class="cls-3" d="m44.65,133.67c-4.41,0-7.61-3.31-7.61-7.86s3.2-7.86,7.61-7.86,7.64,3.3,7.64,7.86-3.21,7.86-7.64,7.86m0-18.18c-5.9,0-10.35,4.43-10.35,10.32s4.45,10.32,10.35,10.32,10.38-4.44,10.38-10.32-4.46-10.32-10.38-10.32"/>
    <path class="cls-3" d="m75.55,129.24c0,.36.03.8.06,1.2-.24-.33-.52-.7-.76-.98l-11.79-13.94h-.77v20.38h2.54v-13.52c0-.34-.03-.76-.07-1.14.24.32.51.67.74.93l11.79,13.94h.77v-20.38h-2.52v13.52Z"/>
    <path class="cls-3" d="m101.88,130.51c-1.42,2.07-3.57,3.16-6.21,3.16-4.41,0-7.61-3.31-7.61-7.86s3.2-7.86,7.61-7.86c2.55,0,4.66,1.05,5.95,2.95l.17.25,2.05-1.49-.16-.23c-1.72-2.57-4.49-3.93-8.02-3.93-5.9,0-10.35,4.43-10.35,10.32s4.44,10.32,10.35,10.32c3.53,0,6.48-1.48,8.31-4.16l.16-.24-2.09-1.46-.17.24Z"/>
    <polygon class="cls-3" points="113.63 126.96 122.42 126.96 122.42 124.57 113.63 124.57 113.63 118.14 123.49 118.14 123.49 115.72 110.97 115.72 110.97 135.9 123.89 135.9 123.89 133.47 113.63 133.47 113.63 126.96"/>
    <path class="cls-3" d="m133.95,118.14h3.4c3.12,0,4.64,1.26,4.64,3.86s-1.56,3.83-4.64,3.83h-3.4v-7.69Zm10.78,3.86c0-3.94-2.72-6.29-7.26-6.29h-6.17v20.18h2.66v-7.7h3.28c.25,0,.51,0,.76-.01l4.49,7.71h3.13l-4.86-8.2c2.57-.92,3.98-2.93,3.98-5.7"/>
    <polygon class="cls-3" points="150.08 118.14 156.11 118.14 156.11 135.9 158.76 135.9 158.76 118.14 164.79 118.14 164.79 115.72 150.08 115.72 150.08 118.14"/>
    <polygon class="cls-3" points="194.44 124.86 184.53 124.86 184.53 115.72 181.88 115.72 181.88 135.9 184.53 135.9 184.53 127.31 194.44 127.31 194.44 135.9 197.1 135.9 197.1 115.72 194.44 115.72 194.44 124.86"/>
    <path class="cls-3" d="m215.77,129.12h-6.69l2.84-7.12c.18-.43.35-.95.5-1.4.14.47.33,1.01.49,1.42l2.87,7.09Zm-3.71-13.6l-8.36,20.38h2.68l1.76-4.41h8.6l1.79,4.41h2.82l-8.54-20.38h-.74Z"/>
    <polygon class="cls-3" points="230.59 115.72 227.94 115.72 227.94 135.9 239.84 135.9 239.84 133.47 230.59 133.47 230.59 115.72"/>
    <polygon class="cls-3" points="249.38 133.47 249.38 115.72 246.72 115.72 246.72 135.9 258.63 135.9 258.63 133.47 249.38 133.47"/>
  </g>
  <g>
    <path class="cls-4" d="m40.17,320.1c-9.4,0-15.02,5.8-15.02,12.97s5.63,12.96,15.02,12.96,15.04-5.79,15.04-12.96-5.64-12.97-15.04-12.97Zm0,23.16c-4.5,0-7.93-4.57-7.93-10.18s3.43-10.18,7.93-10.18,7.93,4.55,7.93,10.18-3.42,10.18-7.93,10.18Z"/>
    <polygon class="cls-4" points="56.48 323.92 66.37 323.92 66.37 344.96 73.83 344.96 73.83 323.92 82.18 323.92 82.18 321.05 56.48 321.05 56.48 323.92"/>
    <polygon class="cls-4" points="84.9 323.92 93.24 323.92 93.24 344.96 100.69 344.96 100.69 323.92 110.59 323.92 110.59 321.05 84.9 321.05 84.9 323.92"/>
    <path class="cls-4" d="m10.3,340.68v-19.63H3.15v21.06c0,1.57,1.28,2.85,2.85,2.85h18.29v-2.86h-12.55c-.79,0-1.43-.64-1.43-1.42Z"/>
    <path class="cls-4" d="m114.64,323.89v18.22c0,1.57,1.28,2.85,2.85,2.85h19.5v-2.83h-13.76c-.8,0-1.42-.64-1.42-1.42v-7.05h14.96v-2.81h-14.96v-5.57c0-.78.62-1.42,1.42-1.42h13.76v-2.83h-19.5c-1.57,0-2.85,1.27-2.85,2.84Z"/>
  </g>
  <g>
    <path class="cls-2" d="m23.1,376.83c-1.79,2.59-4.48,3.96-7.79,3.96-5.52,0-9.53-4.15-9.53-9.85s4.01-9.86,9.53-9.86c3.2,0,5.85,1.31,7.46,3.7l.21.31,2.57-1.87-.19-.29c-2.15-3.22-5.63-4.93-10.06-4.93-7.39,0-12.97,5.56-12.97,12.94s5.58,12.93,12.97,12.93c4.42,0,8.12-1.85,10.42-5.21l.2-.3-2.61-1.83-.21.3Z"/>
    <path class="cls-2" d="m45.86,380.79c-5.52,0-9.53-4.15-9.53-9.85s4.01-9.86,9.53-9.86,9.57,4.14,9.57,9.86-4.02,9.85-9.57,9.85m0-22.79c-7.39,0-12.97,5.56-12.97,12.94s5.57,12.93,12.97,12.93,13-5.56,13-12.93-5.59-12.94-13-12.94"/>
    <path class="cls-2" d="m84.58,375.23c0,.45.04,1.01.07,1.51-.31-.42-.65-.88-.95-1.23l-14.77-17.47h-.96v25.54h3.18v-16.94c0-.42-.04-.95-.09-1.43.3.4.64.84.92,1.16l14.77,17.47h.97v-25.54h-3.15v16.94Z"/>
    <path class="cls-2" d="m117.59,376.83c-1.78,2.59-4.48,3.96-7.79,3.96-5.52,0-9.53-4.15-9.53-9.85s4.01-9.86,9.53-9.86c3.2,0,5.84,1.31,7.46,3.7l.22.31,2.57-1.87-.19-.29c-2.15-3.22-5.62-4.93-10.06-4.93-7.4,0-12.97,5.56-12.97,12.94s5.57,12.93,12.97,12.93c4.42,0,8.12-1.85,10.41-5.21l.21-.3-2.61-1.83-.21.3Z"/>
    <polygon class="cls-2" points="132.31 372.38 143.32 372.38 143.32 369.38 132.31 369.38 132.31 361.33 144.66 361.33 144.66 358.29 128.98 358.29 128.98 383.58 145.16 383.58 145.16 380.54 132.31 380.54 132.31 372.38"/>
    <path class="cls-2" d="m157.77,361.33h4.26c3.91,0,5.82,1.58,5.82,4.84s-1.96,4.8-5.82,4.8h-4.26v-9.64Zm13.51,4.84c0-4.93-3.41-7.88-9.1-7.88h-7.74v25.29h3.33v-9.64h4.11c.32,0,.64,0,.96-.02l5.62,9.66h3.92l-6.09-10.27c3.22-1.15,4.99-3.67,4.99-7.14"/>
    <polygon class="cls-2" points="177.99 361.33 185.54 361.33 185.54 383.58 188.87 383.58 188.87 361.33 196.42 361.33 196.42 358.29 177.99 358.29 177.99 361.33"/>
    <polygon class="cls-2" points="233.58 369.74 221.16 369.74 221.16 358.29 217.83 358.29 217.83 383.58 221.16 383.58 221.16 372.81 233.58 372.81 233.58 383.58 236.91 383.58 236.91 358.29 233.58 358.29 233.58 369.74"/>
    <path class="cls-2" d="m260.31,375.08h-8.38l3.56-8.92c.22-.54.44-1.19.62-1.75.18.59.41,1.27.61,1.78l3.59,8.89Zm-4.65-17.04l-10.48,25.54h3.35l2.2-5.52h10.78l2.24,5.52h3.54l-10.7-25.54h-.92Z"/>
    <polygon class="cls-2" points="278.88 358.29 275.56 358.29 275.56 383.58 290.48 383.58 290.48 380.54 278.88 380.54 278.88 358.29"/>
    <polygon class="cls-2" points="302.43 380.54 302.43 358.29 299.1 358.29 299.1 383.58 314.03 383.58 314.03 380.54 302.43 380.54"/>
  </g>
  <g>
    <path class="cls-2" d="m133.22,265.72c-5.62-.52-11.19-.64-16.7-.24-19.24,1.4-35.69,6.95-50.19,11.83-9.74,3.29-18.89,6.37-27.96,7.95-9.47,4.95-19.6,7.75-30.12,5.08,21.2,6.4,40.2,0,60.22-6.75,14.82-5,30.15-10.17,48.54-11.51,7.3-.53,14.79-.07,22.39,1.05-2.05-2.61-4.09-5.11-6.17-7.42Z"/>
    <path class="cls-2" d="m191.57,280.36c-17.48-5.75-35.38-11.64-52.96-14.02,2.07,2.46,4.1,5.04,6.12,7.7,14.8,2.76,29.93,7.74,44.75,12.61,22.61,7.45,45.64,15.05,67.86,15.05,7.3,0,14.52-.82,21.6-2.74,6.14-4.23,11.48-8.48,15.71-12.25l9.15-8.3c-33.27,27.96-71.67,15.33-112.23,1.97Z"/>
  </g>
  <path class="cls-4" d="m306.03,285.09c-2.73,2.2-5.65,4.48-8.48,6.79-18.21,14.83-49.55,34.14-82.45,34.14-36.08,0-53.7-23.56-69.24-44.35-2.2-2.94-4.34-5.8-6.48-8.53-2.05-2.61-4.09-5.11-6.17-7.42-8.14-9.04-16.86-15.29-28.67-15.29h-.04c-17.63.03-31.27,10.33-44.46,20.29-6.69,5.05-13.97,10.5-21.69,14.53-9.47,4.95-19.6,7.75-30.12,5.08-2.04-.52-4.1-1.24-6.16-2.2-1.95-.85-2.43-2.88-1.83-4.34.61-1.45,2.11-2.48,4.14-1.88,21.22,7.8,36.95-1.68,53.44-14.14,13.67-10.33,27.82-21,46.68-21.03h.05c14.47,0,24.7,8.47,34.07,19.58,2.07,2.46,4.1,5.04,6.12,7.7,1.36,1.79,2.72,3.6,4.09,5.43,15.02,20.1,32.05,42.88,66.28,42.88,23.26,0,46.69-11.58,63.84-23.39,6.14-4.23,11.48-8.48,15.71-12.25l9.15-8.3s.84-.72,3.96-3.61c1.51-1.43,3.72-1.53,4.95-.15,1.22,1.37,1.23,3.47-.17,4.77,0,0-2.59,2.41-2.89,2.66-3.6,3.17-8.04,6.43-12.19,9.82"/>
  <g>
    <path class="cls-1" d="m40.17,472.1c-9.4,0-15.02,5.8-15.02,12.97s5.63,12.96,15.02,12.96,15.04-5.79,15.04-12.96-5.64-12.97-15.04-12.97Zm0,23.16c-4.5,0-7.93-4.57-7.93-10.18s3.43-10.18,7.93-10.18,7.93,4.55,7.93,10.18-3.42,10.18-7.93,10.18Z"/>
    <polygon class="cls-1" points="56.48 475.92 66.37 475.92 66.37 496.96 73.83 496.96 73.83 475.92 82.18 475.92 82.18 473.05 56.48 473.05 56.48 475.92"/>
    <polygon class="cls-1" points="84.9 475.92 93.24 475.92 93.24 496.96 100.69 496.96 100.69 475.92 110.59 475.92 110.59 473.05 84.9 473.05 84.9 475.92"/>
    <path class="cls-1" d="m10.3,492.68v-19.63H3.15v21.06c0,1.57,1.28,2.85,2.85,2.85h18.29v-2.86h-12.55c-.79,0-1.43-.64-1.43-1.42Z"/>
    <path class="cls-1" d="m114.64,475.89v18.22c0,1.57,1.28,2.85,2.85,2.85h19.5v-2.83h-13.76c-.8,0-1.42-.64-1.42-1.42v-7.05h14.96v-2.81h-14.96v-5.57c0-.78.62-1.42,1.42-1.42h13.76v-2.83h-19.5c-1.57,0-2.85,1.27-2.85,2.84Z"/>
  </g>
  <g>
    <path class="cls-1" d="m23.1,528.83c-1.79,2.59-4.48,3.96-7.79,3.96-5.52,0-9.53-4.15-9.53-9.85s4.01-9.86,9.53-9.86c3.2,0,5.85,1.31,7.46,3.7l.21.31,2.57-1.87-.19-.29c-2.15-3.22-5.63-4.93-10.06-4.93-7.39,0-12.97,5.56-12.97,12.94s5.58,12.93,12.97,12.93c4.42,0,8.12-1.85,10.42-5.21l.2-.3-2.61-1.83-.21.3Z"/>
    <path class="cls-1" d="m45.86,532.79c-5.52,0-9.53-4.15-9.53-9.85s4.01-9.86,9.53-9.86,9.57,4.14,9.57,9.86-4.02,9.85-9.57,9.85m0-22.79c-7.39,0-12.97,5.56-12.97,12.94s5.57,12.93,12.97,12.93,13-5.56,13-12.93-5.59-12.94-13-12.94"/>
    <path class="cls-1" d="m84.58,527.23c0,.45.04,1.01.07,1.51-.31-.42-.65-.88-.95-1.23l-14.77-17.47h-.96v25.54h3.18v-16.94c0-.42-.04-.95-.09-1.43.3.4.64.84.92,1.16l14.77,17.47h.97v-25.54h-3.15v16.94Z"/>
    <path class="cls-1" d="m117.59,528.83c-1.78,2.59-4.48,3.96-7.79,3.96-5.52,0-9.53-4.15-9.53-9.85s4.01-9.86,9.53-9.86c3.2,0,5.84,1.31,7.46,3.7l.22.31,2.57-1.87-.19-.29c-2.15-3.22-5.62-4.93-10.06-4.93-7.4,0-12.97,5.56-12.97,12.94s5.57,12.93,12.97,12.93c4.42,0,8.12-1.85,10.41-5.21l.21-.3-2.61-1.83-.21.3Z"/>
    <polygon class="cls-1" points="132.31 524.38 143.32 524.38 143.32 521.38 132.31 521.38 132.31 513.33 144.66 513.33 144.66 510.29 128.98 510.29 128.98 535.58 145.16 535.58 145.16 532.54 132.31 532.54 132.31 524.38"/>
    <path class="cls-1" d="m157.77,513.33h4.26c3.91,0,5.82,1.58,5.82,4.84s-1.96,4.8-5.82,4.8h-4.26v-9.64Zm13.51,4.84c0-4.93-3.41-7.88-9.1-7.88h-7.74v25.29h3.33v-9.64h4.11c.32,0,.64,0,.96-.02l5.62,9.66h3.92l-6.09-10.27c3.22-1.15,4.99-3.67,4.99-7.14"/>
    <polygon class="cls-1" points="177.99 513.33 185.54 513.33 185.54 535.58 188.87 535.58 188.87 513.33 196.42 513.33 196.42 510.29 177.99 510.29 177.99 513.33"/>
    <polygon class="cls-1" points="233.58 521.74 221.16 521.74 221.16 510.29 217.83 510.29 217.83 535.58 221.16 535.58 221.16 524.81 233.58 524.81 233.58 535.58 236.91 535.58 236.91 510.29 233.58 510.29 233.58 521.74"/>
    <path class="cls-1" d="m260.31,527.08h-8.38l3.56-8.92c.22-.54.44-1.19.62-1.75.18.59.41,1.27.61,1.78l3.59,8.89Zm-4.65-17.04l-10.48,25.54h3.35l2.2-5.52h10.78l2.24,5.52h3.54l-10.7-25.54h-.92Z"/>
    <polygon class="cls-1" points="278.88 510.29 275.56 510.29 275.56 535.58 290.48 535.58 290.48 532.54 278.88 532.54 278.88 510.29"/>
    <polygon class="cls-1" points="302.43 532.54 302.43 510.29 299.1 510.29 299.1 535.58 314.03 535.58 314.03 532.54 302.43 532.54"/>
  </g>
  <g>
    <path class="cls-1" d="m133.22,417.72c-5.62-.52-11.19-.64-16.7-.24-19.24,1.4-35.69,6.95-50.19,11.83-9.74,3.29-18.89,6.37-27.96,7.95-9.47,4.95-19.6,7.75-30.12,5.08,21.2,6.4,40.2,0,60.22-6.75,14.82-5,30.15-10.17,48.54-11.51,7.3-.53,14.79-.07,22.39,1.05-2.05-2.61-4.09-5.11-6.17-7.42Z"/>
    <path class="cls-1" d="m191.57,432.36c-17.48-5.75-35.38-11.64-52.96-14.02,2.07,2.46,4.1,5.04,6.12,7.7,14.8,2.76,29.93,7.74,44.75,12.61,22.61,7.45,45.64,15.05,67.86,15.05,7.3,0,14.52-.82,21.6-2.74,6.14-4.23,11.48-8.48,15.71-12.25l9.15-8.3c-33.27,27.96-71.67,15.33-112.23,1.97Z"/>
  </g>
  <path class="cls-1" d="m306.03,437.09c-2.73,2.2-5.65,4.48-8.48,6.79-18.21,14.83-49.55,34.14-82.45,34.14-36.08,0-53.7-23.56-69.24-44.35-2.2-2.94-4.34-5.8-6.48-8.53-2.05-2.61-4.09-5.11-6.17-7.42-8.14-9.04-16.86-15.29-28.67-15.29h-.04c-17.63.03-31.27,10.33-44.46,20.29-6.69,5.05-13.97,10.5-21.69,14.53-9.47,4.95-19.6,7.75-30.12,5.08-2.04-.52-4.1-1.24-6.16-2.2-1.95-.85-2.43-2.88-1.83-4.34.61-1.45,2.11-2.48,4.14-1.88,21.22,7.8,36.95-1.68,53.44-14.14,13.67-10.33,27.82-21,46.68-21.03h.05c14.47,0,24.7,8.47,34.07,19.58,2.07,2.46,4.1,5.04,6.12,7.7,1.36,1.79,2.72,3.6,4.09,5.43,15.02,20.1,32.05,42.88,66.28,42.88,23.26,0,46.69-11.58,63.84-23.39,6.14-4.23,11.48-8.48,15.71-12.25l9.15-8.3s.84-.72,3.96-3.61c1.51-1.43,3.72-1.53,4.95-.15,1.22,1.37,1.23,3.47-.17,4.77,0,0-2.59,2.41-2.89,2.66-3.6,3.17-8.04,6.43-12.19,9.82"/>
  <g>
    <path class="cls-3" d="m41.17,641.1c-9.4,0-15.02,5.8-15.02,12.97s5.63,12.96,15.02,12.96,15.04-5.79,15.04-12.96-5.64-12.97-15.04-12.97Zm0,23.16c-4.5,0-7.93-4.57-7.93-10.18s3.43-10.18,7.93-10.18,7.93,4.55,7.93,10.18-3.42,10.18-7.93,10.18Z"/>
    <polygon class="cls-3" points="57.48 644.92 67.37 644.92 67.37 665.96 74.83 665.96 74.83 644.92 83.18 644.92 83.18 642.05 57.48 642.05 57.48 644.92"/>
    <polygon class="cls-3" points="85.9 644.92 94.24 644.92 94.24 665.96 101.69 665.96 101.69 644.92 111.59 644.92 111.59 642.05 85.9 642.05 85.9 644.92"/>
    <path class="cls-3" d="m11.3,661.68v-19.63h-7.15v21.06c0,1.57,1.28,2.85,2.85,2.85h18.29v-2.86h-12.55c-.79,0-1.43-.64-1.43-1.42Z"/>
    <path class="cls-3" d="m115.64,644.89v18.22c0,1.57,1.28,2.85,2.85,2.85h19.5v-2.83h-13.76c-.8,0-1.42-.64-1.42-1.42v-7.05h14.96v-2.81h-14.96v-5.57c0-.78.62-1.42,1.42-1.42h13.76v-2.83h-19.5c-1.57,0-2.85,1.27-2.85,2.84Z"/>
  </g>
  <g>
    <path class="cls-3" d="m24.1,697.83c-1.79,2.59-4.48,3.96-7.79,3.96-5.52,0-9.53-4.15-9.53-9.85s4.01-9.86,9.53-9.86c3.2,0,5.85,1.31,7.46,3.7l.21.31,2.57-1.87-.19-.29c-2.15-3.22-5.63-4.93-10.06-4.93-7.39,0-12.97,5.56-12.97,12.94s5.58,12.93,12.97,12.93c4.42,0,8.12-1.85,10.42-5.21l.2-.3-2.61-1.83-.21.3Z"/>
    <path class="cls-3" d="m46.86,701.79c-5.52,0-9.53-4.15-9.53-9.85s4.01-9.86,9.53-9.86,9.57,4.14,9.57,9.86-4.02,9.85-9.57,9.85m0-22.79c-7.39,0-12.97,5.56-12.97,12.94s5.57,12.93,12.97,12.93,13-5.56,13-12.93-5.59-12.94-13-12.94"/>
    <path class="cls-3" d="m85.58,696.23c0,.45.04,1.01.07,1.51-.31-.42-.65-.88-.95-1.23l-14.77-17.47h-.96v25.54h3.18v-16.94c0-.42-.04-.95-.09-1.43.3.4.64.84.92,1.16l14.77,17.47h.97v-25.54h-3.15v16.94Z"/>
    <path class="cls-3" d="m118.59,697.83c-1.78,2.59-4.48,3.96-7.79,3.96-5.52,0-9.53-4.15-9.53-9.85s4.01-9.86,9.53-9.86c3.2,0,5.84,1.31,7.46,3.7l.22.31,2.57-1.87-.19-.29c-2.15-3.22-5.62-4.93-10.06-4.93-7.4,0-12.97,5.56-12.97,12.94s5.57,12.93,12.97,12.93c4.42,0,8.12-1.85,10.41-5.21l.21-.3-2.61-1.83-.21.3Z"/>
    <polygon class="cls-3" points="133.31 693.38 144.32 693.38 144.32 690.38 133.31 690.38 133.31 682.33 145.66 682.33 145.66 679.29 129.98 679.29 129.98 704.58 146.16 704.58 146.16 701.54 133.31 701.54 133.31 693.38"/>
    <path class="cls-3" d="m158.77,682.33h4.26c3.91,0,5.82,1.58,5.82,4.84s-1.96,4.8-5.82,4.8h-4.26v-9.64Zm13.51,4.84c0-4.93-3.41-7.88-9.1-7.88h-7.74v25.29h3.33v-9.64h4.11c.32,0,.64,0,.96-.02l5.62,9.66h3.92l-6.09-10.27c3.22-1.15,4.99-3.67,4.99-7.14"/>
    <polygon class="cls-3" points="178.99 682.33 186.54 682.33 186.54 704.58 189.87 704.58 189.87 682.33 197.42 682.33 197.42 679.29 178.99 679.29 178.99 682.33"/>
    <polygon class="cls-3" points="234.58 690.74 222.16 690.74 222.16 679.29 218.83 679.29 218.83 704.58 222.16 704.58 222.16 693.81 234.58 693.81 234.58 704.58 237.91 704.58 237.91 679.29 234.58 679.29 234.58 690.74"/>
    <path class="cls-3" d="m261.31,696.08h-8.38l3.56-8.92c.22-.54.44-1.19.62-1.75.18.59.41,1.27.61,1.78l3.59,8.89Zm-4.65-17.04l-10.48,25.54h3.35l2.2-5.52h10.78l2.24,5.52h3.54l-10.7-25.54h-.92Z"/>
    <polygon class="cls-3" points="279.88 679.29 276.56 679.29 276.56 704.58 291.48 704.58 291.48 701.54 279.88 701.54 279.88 679.29"/>
    <polygon class="cls-3" points="303.43 701.54 303.43 679.29 300.1 679.29 300.1 704.58 315.03 704.58 315.03 701.54 303.43 701.54"/>
  </g>
  <g class="cls-5">
    <path class="cls-3" d="m134.22,586.72c-5.62-.52-11.19-.64-16.7-.24-19.24,1.4-35.69,6.95-50.19,11.83-9.74,3.29-18.89,6.37-27.96,7.95-9.47,4.95-19.6,7.75-30.12,5.08,21.2,6.4,40.2,0,60.22-6.75,14.82-5,30.15-10.17,48.54-11.51,7.3-.53,14.79-.07,22.39,1.05-2.05-2.61-4.09-5.11-6.17-7.42Z"/>
    <path class="cls-3" d="m192.57,601.36c-17.48-5.75-35.38-11.64-52.96-14.02,2.07,2.46,4.1,5.04,6.12,7.7,14.8,2.76,29.93,7.74,44.75,12.61,22.61,7.45,45.64,15.05,67.86,15.05,7.3,0,14.52-.82,21.6-2.74,6.14-4.23,11.48-8.48,15.71-12.25l9.15-8.3c-33.27,27.96-71.67,15.33-112.23,1.97Z"/>
  </g>
  <path class="cls-3" d="m307.03,606.09c-2.73,2.2-5.65,4.48-8.48,6.79-18.21,14.83-49.55,34.14-82.45,34.14-36.08,0-53.7-23.56-69.24-44.35-2.2-2.94-4.34-5.8-6.48-8.53-2.05-2.61-4.09-5.11-6.17-7.42-8.14-9.04-16.86-15.29-28.67-15.29h-.04c-17.63.03-31.27,10.33-44.46,20.29-6.69,5.05-13.97,10.5-21.69,14.53-9.47,4.95-19.6,7.75-30.12,5.08-2.04-.52-4.1-1.24-6.16-2.2-1.95-.85-2.43-2.88-1.83-4.34.61-1.45,2.11-2.48,4.14-1.88,21.22,7.8,36.95-1.68,53.44-14.14,13.67-10.33,27.82-21,46.68-21.03h.05c14.47,0,24.7,8.47,34.07,19.58,2.07,2.46,4.1,5.04,6.12,7.7,1.36,1.79,2.72,3.6,4.09,5.43,15.02,20.1,32.05,42.88,66.28,42.88,23.26,0,46.69-11.58,63.84-23.39,6.14-4.23,11.48-8.48,15.71-12.25l9.15-8.3s.84-.72,3.96-3.61c1.51-1.43,3.72-1.53,4.95-.15,1.22,1.37,1.23,3.47-.17,4.77,0,0-2.59,2.41-2.89,2.66-3.6,3.17-8.04,6.43-12.19,9.82"/>
</svg>