<?xml version="1.0" encoding="UTF-8"?>
<svg id="Layer_1" data-name="Layer 1" xmlns="http://www.w3.org/2000/svg" viewBox="0 0 110.16 17.61">
  <defs>
    <style>
      .cls-1 {
        fill: #ec2127;
        stroke-width: 0px;
      }
    </style>
  </defs>
  <path class="cls-1" d="m32.34.67v16.81h2.51V.67h-2.51Zm-4.02,6.07h-3.15v1.5h3.15v3.53c-.61.24-1.16.37-1.98.37h-3.58c-.33,0-.6-.27-.6-.6V3.16h4.59v-1.21h-7.19v10.19c0,.66.54,1.2,1.2,1.2h5.58c.85,0,1.53-.15,1.98-.43v4.55h2.51V.67h-2.51v6.07Z"/>
  <path class="cls-1" d="m9.49,9.54v-1.65h5.53v-1.2H4.61c-.33,0-.61-.27-.61-.6v-1.06h10.8V.95H1.41v1.21h10.8v1.65H1.41v2.88c0,.67.54,1.21,1.2,1.21h4.28v1.65H0v1.21h16.43v-1.21h-6.94Zm.07,1.98h-2.91c-.77,3.2-4.55,4.81-5.94,5.01l.72,1.07c1.42-.17,4.65-1.33,6.68-3.54,2.02,2.21,5.26,3.37,6.68,3.54l.72-1.07c-1.39-.2-5.17-1.81-5.94-5.01Z"/>
  <path class="cls-1" d="m55.5,10.71h-16.94v-1.25h5.6v-2.76h2.5v2.76h8.84v1.25ZM40.51,1.16h12.5v4.25c0,1.04-.15,2.35-.65,3.21h-2.16c.26-.88.37-2.03.37-3.08h-10.06v-1.21h10.06v-1.96h-10.06v-1.21Zm2.56,14.35c0,.32,0,.62.63.62h9.93v1.23h-11.76c-1.27,0-1.27-.89-1.27-1.53v-3.84h2.46v3.53Z"/>
  <path class="cls-1" d="m63.32,4.98c0,3.36,2.43,5.99,4.55,6.96l-.97.93c-1.16-.3-3.51-1.77-4.8-3.85-1.21,2.09-3.57,3.53-4.82,3.83l-.93-.91c2.18-.93,4.35-3.49,4.35-6.94V1.14h2.61v3.85Zm2.41.43h3.83V.67h2.52v16.68h-2.52V6.64h-3.83v-1.23Z"/>
  <path class="cls-1" d="m92.06,13.08v1.21h-16.89v-1.21h16.89Zm-2.29-11.91v1.21h-10.13v2.61h10.13v1.21h-10.13v2.09c0,.38.21.62.62.62h9.8v1.19h-11.63c-.78,0-1.23-.5-1.23-1.18V1.17h12.58Z"/>
  <path class="cls-1" d="m103,7.91v1.01h7.17v1.21h-16.89v-1.21h7.13v-.99c-2.45-.34-3.64-1.55-3.64-3.04,0-.92.47-1.64,1.19-2.16h-3v-1.16h5.49V0h2.61v1.57h5.37v1.16h-3.15c.75.52,1.21,1.25,1.21,2.16,0,1.89-1.81,2.74-3.49,3.02Zm-6.42,9.61c-.69,0-1.29-.52-1.29-1.23v-2.5h10.1v-1.21h-10.1v-1.23h12.6v3.66h-10.11v.78c0,.37.15.5.49.5h9.87v1.23h-11.55Zm5.08-10.69c1.38,0,2.31-.76,2.31-2.02s-.93-2.01-2.31-2.01-2.39.76-2.39,2.01,1.01,2.02,2.39,2.02Z"/>
</svg>