<?xml version="1.0" encoding="UTF-8"?>
<svg id="Layer_2" data-name="Layer 2" xmlns="http://www.w3.org/2000/svg" viewBox="0 0 823.75 228">
  <defs>
    <style>
      .cls-1 {
        fill: #fffae4;
        stroke-width: 0px;
      }
    </style>
  </defs>
  <g id="Layer_1-2" data-name="Layer 1">
    <path class="cls-1" d="m769.35,20.13C708.52-2.17,428.99-.03,411.88.12,394.77-.03,115.23-2.17,54.41,20.13-8.35,43.13-10.37,86.13,15.95,123.13c0,0,24.29,22,13.16,50,0,0-8.1,35,33.4,41,8.44,1.22,24.21,2.55,44.78,3.89,78.36,5.09,226.37,10.29,304.53,9.97,98.62.41,308.83-7.98,349.43-13.86,41.5-6,33.4-41,33.4-41-11.13-28,13.16-50,13.16-50,26.32-37,24.29-80-38.46-103Z"/>
  </g>
</svg>