<?xml version="1.0" encoding="UTF-8"?>
<svg id="Layer_2" data-name="Layer 2" xmlns="http://www.w3.org/2000/svg" viewBox="0 0 315.41 315.41">
  <defs>
    <style>
      .cls-1 {
        fill: #ae9b73;
      }

      .cls-1, .cls-2 {
        stroke-width: 0px;
      }

      .cls-3 {
        fill: none;
        stroke: #f1f2f2;
        stroke-miterlimit: 10;
        stroke-width: .8px;
      }

      .cls-2, .cls-4 {
        fill: #fff;
      }

      .cls-5 {
        fill: #574e37;
        font-size: 15px;
      }

      .cls-6 {
        font-family: NotoSansKR-Medium, 'Noto Sans KR';
        font-variation-settings: 'wght' 500;
        font-weight: 500;
      }

      .cls-7 {
        opacity: .6;
      }

      .cls-4 {
        font-size: 13px;
      }
    </style>
  </defs>
  <g id="Layer_2-2" data-name="Layer 2">
    <circle class="cls-1" cx="157.71" cy="157.71" r="157.71"/>
  </g>
  <g id="Layer_3" data-name="Layer 3">
    <circle class="cls-3" cx="157.71" cy="157.71" r="152.5"/>
  </g>
  <g id="Layer_1-2" data-name="Layer 1">
    <g>
      <g>
        <path class="cls-2" d="m103.02,64.63c-4.45,0-7.11,2.75-7.11,6.14s2.66,6.13,7.11,6.13,7.12-2.74,7.12-6.13-2.67-6.14-7.12-6.14Zm0,10.96c-2.13,0-3.75-2.16-3.75-4.82s1.62-4.82,3.75-4.82,3.75,2.16,3.75,4.82-1.62,4.82-3.75,4.82Z"/>
        <polygon class="cls-2" points="110.74 66.44 115.42 66.44 115.42 76.39 118.95 76.39 118.95 66.44 122.9 66.44 122.9 65.08 110.74 65.08 110.74 66.44"/>
        <polygon class="cls-2" points="124.19 66.44 128.14 66.44 128.14 76.39 131.66 76.39 131.66 66.44 136.35 66.44 136.35 65.08 124.19 65.08 124.19 66.44"/>
        <path class="cls-2" d="m88.89,74.37v-9.29h-3.38v9.97c0,.74.6,1.35,1.35,1.35h8.65v-1.35h-5.94c-.37,0-.68-.3-.68-.67Z"/>
        <path class="cls-2" d="m138.27,66.42v8.62c0,.74.61,1.35,1.35,1.35h9.23v-1.34h-6.51c-.38,0-.67-.3-.67-.67v-3.34h7.08v-1.33h-7.08v-2.63c0-.37.3-.67.67-.67h6.51v-1.34h-9.23c-.74,0-1.35.6-1.35,1.34Z"/>
      </g>
      <g>
        <path class="cls-2" d="m94.95,91.47c-.85,1.23-2.12,1.87-3.69,1.87-2.61,0-4.51-1.96-4.51-4.66s1.9-4.66,4.51-4.66c1.51,0,2.77.62,3.53,1.75l.1.15,1.21-.89-.09-.14c-1.02-1.53-2.66-2.33-4.76-2.33-3.5,0-6.14,2.63-6.14,6.12s2.64,6.12,6.14,6.12c2.09,0,3.84-.88,4.93-2.47l.09-.14-1.24-.86-.1.14Z"/>
        <path class="cls-2" d="m105.72,93.35c-2.61,0-4.51-1.96-4.51-4.66s1.9-4.66,4.51-4.66,4.53,1.96,4.53,4.66-1.9,4.66-4.53,4.66m0-10.78c-3.5,0-6.14,2.63-6.14,6.12s2.64,6.12,6.14,6.12,6.15-2.63,6.15-6.12-2.64-6.12-6.15-6.12"/>
        <path class="cls-2" d="m124.04,90.72c0,.21.02.48.03.71-.14-.2-.31-.42-.45-.58l-6.99-8.26h-.46v12.09h1.51v-8.02c0-.2-.02-.45-.04-.68.14.19.3.4.44.55l6.99,8.27h.46v-12.09h-1.49v8.02Z"/>
        <path class="cls-2" d="m139.66,91.47c-.84,1.23-2.12,1.87-3.69,1.87-2.61,0-4.51-1.96-4.51-4.66s1.9-4.66,4.51-4.66c1.51,0,2.76.62,3.53,1.75l.1.15,1.22-.89-.09-.14c-1.02-1.53-2.66-2.33-4.76-2.33-3.5,0-6.14,2.63-6.14,6.12s2.64,6.12,6.14,6.12c2.09,0,3.84-.88,4.93-2.47l.1-.14-1.24-.86-.1.14Z"/>
        <polygon class="cls-2" points="146.62 89.37 151.84 89.37 151.84 87.95 146.62 87.95 146.62 84.14 152.47 84.14 152.47 82.7 145.05 82.7 145.05 94.67 152.71 94.67 152.71 93.23 146.62 93.23 146.62 89.37"/>
        <path class="cls-2" d="m158.67,84.14h2.02c1.85,0,2.75.75,2.75,2.29s-.93,2.27-2.75,2.27h-2.02v-4.56Zm6.39,2.29c0-2.34-1.61-3.73-4.31-3.73h-3.66v11.97h1.58v-4.56h1.95c.15,0,.3,0,.45,0l2.66,4.57h1.85l-2.88-4.86c1.53-.54,2.36-1.74,2.36-3.38"/>
        <polygon class="cls-2" points="168.24 84.14 171.81 84.14 171.81 94.67 173.39 94.67 173.39 84.14 176.96 84.14 176.96 82.7 168.24 82.7 168.24 84.14"/>
        <polygon class="cls-2" points="194.55 88.12 188.67 88.12 188.67 82.7 187.1 82.7 187.1 94.67 188.67 94.67 188.67 89.57 194.55 89.57 194.55 94.67 196.12 94.67 196.12 82.7 194.55 82.7 194.55 88.12"/>
        <path class="cls-2" d="m207.2,90.65h-3.97l1.68-4.22c.11-.25.21-.56.3-.83.09.28.2.6.29.84l1.7,4.21Zm-2.2-8.07l-4.96,12.09h1.59l1.04-2.61h5.1l1.06,2.61h1.67l-5.07-12.09h-.44Z"/>
        <polygon class="cls-2" points="215.99 82.7 214.41 82.7 214.41 94.67 221.47 94.67 221.47 93.23 215.99 93.23 215.99 82.7"/>
        <polygon class="cls-2" points="227.13 93.23 227.13 82.7 225.55 82.7 225.55 94.67 232.62 94.67 232.62 93.23 227.13 93.23"/>
      </g>
      <g class="cls-7">
        <path class="cls-2" d="m147.05,38.89c-2.66-.25-5.3-.3-7.9-.11-9.1.66-16.89,3.29-23.75,5.6-4.61,1.56-8.94,3.01-13.23,3.76-4.48,2.34-9.28,3.67-14.25,2.4,10.03,3.03,19.03,0,28.5-3.19,7.01-2.37,14.27-4.81,22.97-5.45,3.45-.25,7-.03,10.6.5-.97-1.24-1.94-2.42-2.92-3.51Z"/>
        <path class="cls-2" d="m174.67,45.82c-8.27-2.72-16.74-5.51-25.06-6.64.98,1.16,1.94,2.39,2.9,3.64,7,1.3,14.17,3.66,21.18,5.97,10.7,3.53,21.6,7.12,32.11,7.12,3.45,0,6.87-.39,10.22-1.3,2.9-2,5.43-4.01,7.43-5.8l4.33-3.93c-15.74,13.23-33.92,7.25-53.11.93Z"/>
      </g>
      <path class="cls-2" d="m228.83,48.06c-1.29,1.04-2.68,2.12-4.01,3.21-8.62,7.02-23.45,16.16-39.02,16.16-17.07,0-25.41-11.15-32.76-20.99-1.04-1.39-2.06-2.75-3.07-4.04-.97-1.24-1.94-2.42-2.92-3.51-3.85-4.28-7.98-7.23-13.57-7.23h-.02c-8.34.01-14.8,4.89-21.04,9.6-3.17,2.39-6.61,4.97-10.26,6.88-4.48,2.34-9.28,3.67-14.25,2.4-.97-.25-1.94-.59-2.92-1.04-.92-.4-1.15-1.36-.87-2.05.29-.69,1-1.17,1.96-.89,10.04,3.69,17.48-.79,25.29-6.69,6.47-4.89,13.16-9.94,22.09-9.95h.02c6.85,0,11.69,4.01,16.12,9.27.98,1.16,1.94,2.39,2.9,3.64.65.85,1.29,1.7,1.94,2.57,7.11,9.51,15.17,20.29,31.36,20.29,11.01,0,22.1-5.48,30.21-11.07,2.9-2,5.43-4.01,7.43-5.8l4.33-3.93s.4-.34,1.87-1.71c.71-.68,1.76-.72,2.34-.07.58.65.58,1.64-.08,2.26,0,0-1.22,1.14-1.37,1.26-1.71,1.5-3.8,3.04-5.77,4.65"/>
    </g>
    <text class="cls-6" transform="translate(73.3 128.64)"><tspan class="cls-4"><tspan x="0" y="0">본 사이트는 상업적 목적이 아닌</tspan></tspan><tspan class="cls-5" x="-32.88" y="21">개인 포트폴리오 용도</tspan><tspan class="cls-4" x="99.72" y="21">로 만들어졌습니다.</tspan><tspan class="cls-4"><tspan x="-25.74" y="42">홈페이지의 일부 내용과 기타 이미지 등은</tspan></tspan><tspan class="cls-4"><tspan x="-1.94" y="63">그 출처가 따로 있음을 밝힙니다.</tspan></tspan></text>
  </g>
</svg>