<?xml version="1.0" encoding="UTF-8"?>
<svg id="Layer_2" data-name="Layer 2" xmlns="http://www.w3.org/2000/svg" viewBox="0 0 314.03 137.11">
  <defs>
    <style>
      .cls-1 {
        fill: #646569;
      }

      .cls-1, .cls-2 {
        stroke-width: 0px;
      }

      .cls-2 {
        fill: #ec2127;
      }
    </style>
  </defs>
  <g id="Layer_1-2" data-name="Layer 1">
    <g>
      <path class="cls-2" d="m40.17,73.34c-9.4,0-15.02,5.8-15.02,12.97s5.63,12.96,15.02,12.96,15.04-5.79,15.04-12.96-5.64-12.97-15.04-12.97Zm0,23.16c-4.5,0-7.93-4.57-7.93-10.18s3.43-10.18,7.93-10.18,7.93,4.55,7.93,10.18-3.42,10.18-7.93,10.18Z"/>
      <polygon class="cls-2" points="56.48 77.16 66.37 77.16 66.37 98.21 73.83 98.21 73.83 77.16 82.18 77.16 82.18 74.3 56.48 74.3 56.48 77.16"/>
      <polygon class="cls-2" points="84.9 77.16 93.24 77.16 93.24 98.21 100.69 98.21 100.69 77.16 110.59 77.16 110.59 74.3 84.9 74.3 84.9 77.16"/>
      <path class="cls-2" d="m10.3,93.92v-19.63H3.15v21.06c0,1.57,1.28,2.85,2.85,2.85h18.29v-2.86h-12.55c-.79,0-1.43-.64-1.43-1.42Z"/>
      <path class="cls-2" d="m114.64,77.14v18.22c0,1.57,1.28,2.85,2.85,2.85h19.5v-2.83h-13.76c-.8,0-1.42-.64-1.42-1.42v-7.05h14.96v-2.81h-14.96v-5.57c0-.78.62-1.42,1.42-1.42h13.76v-2.83h-19.5c-1.57,0-2.85,1.27-2.85,2.84Z"/>
    </g>
    <g>
      <path class="cls-1" d="m23.1,130.07c-1.79,2.59-4.48,3.96-7.79,3.96-5.52,0-9.53-4.15-9.53-9.85s4.01-9.86,9.53-9.86c3.2,0,5.85,1.31,7.46,3.7l.21.31,2.57-1.87-.19-.29c-2.15-3.22-5.63-4.93-10.06-4.93-7.39,0-12.97,5.56-12.97,12.94s5.58,12.93,12.97,12.93c4.42,0,8.12-1.85,10.42-5.21l.2-.3-2.61-1.83-.21.3Z"/>
      <path class="cls-1" d="m45.86,134.03c-5.52,0-9.53-4.15-9.53-9.85s4.01-9.86,9.53-9.86,9.57,4.14,9.57,9.86-4.02,9.85-9.57,9.85m0-22.79c-7.39,0-12.97,5.56-12.97,12.94s5.57,12.93,12.97,12.93,13-5.56,13-12.93-5.59-12.94-13-12.94"/>
      <path class="cls-1" d="m84.58,128.47c0,.45.04,1.01.07,1.51-.31-.42-.65-.88-.95-1.23l-14.77-17.47h-.96v25.54h3.18v-16.94c0-.42-.04-.95-.09-1.43.3.4.64.84.92,1.16l14.77,17.47h.97v-25.54h-3.15v16.94Z"/>
      <path class="cls-1" d="m117.59,130.07c-1.78,2.59-4.48,3.96-7.79,3.96-5.52,0-9.53-4.15-9.53-9.85s4.01-9.86,9.53-9.86c3.2,0,5.84,1.31,7.46,3.7l.22.31,2.57-1.87-.19-.29c-2.15-3.22-5.62-4.93-10.06-4.93-7.4,0-12.97,5.56-12.97,12.94s5.57,12.93,12.97,12.93c4.42,0,8.12-1.85,10.41-5.21l.21-.3-2.61-1.83-.21.3Z"/>
      <polygon class="cls-1" points="132.31 125.62 143.32 125.62 143.32 122.62 132.31 122.62 132.31 114.57 144.66 114.57 144.66 111.53 128.98 111.53 128.98 136.82 145.16 136.82 145.16 133.78 132.31 133.78 132.31 125.62"/>
      <path class="cls-1" d="m157.77,114.57h4.26c3.91,0,5.82,1.58,5.82,4.84s-1.96,4.8-5.82,4.8h-4.26v-9.64Zm13.51,4.84c0-4.93-3.41-7.88-9.1-7.88h-7.74v25.29h3.33v-9.64h4.11c.32,0,.64,0,.96-.02l5.62,9.66h3.92l-6.09-10.27c3.22-1.15,4.99-3.67,4.99-7.14"/>
      <polygon class="cls-1" points="177.99 114.57 185.54 114.57 185.54 136.82 188.87 136.82 188.87 114.57 196.42 114.57 196.42 111.53 177.99 111.53 177.99 114.57"/>
      <polygon class="cls-1" points="233.58 122.99 221.16 122.99 221.16 111.53 217.83 111.53 217.83 136.82 221.16 136.82 221.16 126.06 233.58 126.06 233.58 136.82 236.91 136.82 236.91 111.53 233.58 111.53 233.58 122.99"/>
      <path class="cls-1" d="m260.31,128.33h-8.38l3.56-8.92c.22-.54.44-1.19.62-1.75.18.59.41,1.27.61,1.78l3.59,8.89Zm-4.65-17.04l-10.48,25.54h3.35l2.2-5.52h10.78l2.24,5.52h3.54l-10.7-25.54h-.92Z"/>
      <polygon class="cls-1" points="278.88 111.53 275.56 111.53 275.56 136.82 290.48 136.82 290.48 133.78 278.88 133.78 278.88 111.53"/>
      <polygon class="cls-1" points="302.43 133.78 302.43 111.53 299.1 111.53 299.1 136.82 314.03 136.82 314.03 133.78 302.43 133.78"/>
    </g>
    <g>
      <path class="cls-1" d="m133.22,18.96c-5.62-.52-11.19-.64-16.7-.24-19.24,1.4-35.69,6.95-50.19,11.83-9.74,3.29-18.89,6.37-27.96,7.95-9.47,4.95-19.6,7.75-30.12,5.08,21.2,6.4,40.2,0,60.22-6.75,14.82-5,30.15-10.17,48.54-11.51,7.3-.53,14.79-.07,22.39,1.05-2.05-2.61-4.09-5.11-6.17-7.42Z"/>
      <path class="cls-1" d="m191.57,33.61c-17.48-5.75-35.38-11.64-52.96-14.02,2.07,2.46,4.1,5.04,6.12,7.7,14.8,2.76,29.93,7.74,44.75,12.61,22.61,7.45,45.64,15.05,67.86,15.05,7.3,0,14.52-.82,21.6-2.74,6.14-4.23,11.48-8.48,15.71-12.25l9.15-8.3c-33.27,27.96-71.67,15.33-112.23,1.97Z"/>
    </g>
    <path class="cls-2" d="m306.03,38.33c-2.73,2.2-5.65,4.48-8.48,6.79-18.21,14.83-49.55,34.14-82.45,34.14-36.08,0-53.7-23.56-69.24-44.35-2.2-2.94-4.34-5.8-6.48-8.53-2.05-2.61-4.09-5.11-6.17-7.42-8.14-9.04-16.86-15.29-28.67-15.29h-.04c-17.63.03-31.27,10.33-44.46,20.29-6.69,5.05-13.97,10.5-21.69,14.53-9.47,4.95-19.6,7.75-30.12,5.08-2.04-.52-4.1-1.24-6.16-2.2-1.95-.85-2.43-2.88-1.83-4.34.61-1.45,2.11-2.48,4.14-1.88,21.22,7.8,36.95-1.68,53.44-14.14C71.5,10.7,85.64.03,104.5,0h.05c14.47,0,24.7,8.47,34.07,19.58,2.07,2.46,4.1,5.04,6.12,7.7,1.36,1.79,2.72,3.6,4.09,5.43,15.02,20.1,32.05,42.88,66.28,42.88,23.26,0,46.69-11.58,63.84-23.39,6.14-4.23,11.48-8.48,15.71-12.25l9.15-8.3s.84-.72,3.96-3.61c1.51-1.43,3.72-1.53,4.95-.15,1.22,1.37,1.23,3.47-.17,4.77,0,0-2.59,2.41-2.89,2.66-3.6,3.17-8.04,6.43-12.19,9.82"/>
  </g>
</svg>