<?xml version="1.0" encoding="UTF-8"?>
<svg id="Layer_1" data-name="Layer 1" xmlns="http://www.w3.org/2000/svg" viewBox="0 0 196 81">
  <defs>
    <style>
      .cls-1 {
        stroke-width: .5px;
      }

      .cls-1, .cls-2, .cls-3 {
        stroke-miterlimit: 10;
      }

      .cls-1, .cls-3 {
        fill: #ec2127;
        stroke: #ec2127;
      }

      .cls-2 {
        fill: #646569;
        stroke: #646569;
      }
    </style>
  </defs>
  <g>
    <path class="cls-1" d="m22.92,42.9c-5.65,0-9.04,3.49-9.04,7.8s3.39,7.8,9.04,7.8,9.04-3.49,9.04-7.8-3.39-7.8-9.04-7.8Zm0,13.93c-2.71,0-4.77-2.75-4.77-6.12s2.06-6.12,4.77-6.12,4.77,2.74,4.77,6.12-2.06,6.12-4.77,6.12Z"/>
    <polygon class="cls-1" points="32.73 45.2 38.68 45.2 38.68 57.86 43.17 57.86 43.17 45.2 48.19 45.2 48.19 43.47 32.73 43.47 32.73 45.2"/>
    <polygon class="cls-1" points="49.83 45.2 54.84 45.2 54.84 57.86 59.33 57.86 59.33 45.2 65.28 45.2 65.28 43.47 49.83 43.47 49.83 45.2"/>
    <path class="cls-1" d="m4.96,55.28v-11.8H.65v12.67c0,.95.77,1.71,1.71,1.71h11v-1.72h-7.55c-.47,0-.86-.38-.86-.86Z"/>
    <path class="cls-1" d="m67.72,45.18v10.96c0,.95.77,1.71,1.72,1.71h11.73v-1.7h-8.28c-.48,0-.86-.39-.86-.85v-4.24h9v-1.69h-9v-3.35c0-.47.38-.85.86-.85h8.28v-1.7h-11.73c-.95,0-1.72.76-1.72,1.71Z"/>
  </g>
  <g>
    <path class="cls-2" d="m13.9,76.09c-1.12,1.62-2.81,2.48-4.89,2.48-3.46,0-5.98-2.6-5.98-6.18s2.51-6.18,5.98-6.18c2,0,3.67.82,4.68,2.32l.13.2,1.61-1.17-.12-.18c-1.35-2.02-3.53-3.09-6.3-3.09-4.63,0-8.13,3.48-8.13,8.11s3.5,8.11,8.13,8.11c2.77,0,5.09-1.16,6.53-3.27l.13-.19-1.64-1.14-.13.19Z"/>
    <path class="cls-2" d="m28.17,78.57c-3.46,0-5.98-2.6-5.98-6.18s2.51-6.18,5.98-6.18,6,2.59,6,6.18-2.52,6.18-6,6.18m0-14.29c-4.64,0-8.13,3.48-8.13,8.11s3.49,8.11,8.13,8.11,8.15-3.49,8.15-8.11-3.5-8.11-8.15-8.11"/>
    <path class="cls-2" d="m52.44,75.09c0,.28.02.63.05.94-.19-.26-.41-.55-.59-.77l-9.26-10.95h-.6v16.01h2v-10.62c0-.26-.03-.6-.05-.9.19.25.4.53.58.73l9.26,10.95h.61v-16.01h-1.98v10.62Z"/>
    <path class="cls-2" d="m73.14,76.09c-1.12,1.62-2.81,2.48-4.88,2.48-3.46,0-5.98-2.6-5.98-6.18s2.51-6.18,5.98-6.18c2,0,3.66.82,4.68,2.32l.14.2,1.61-1.17-.12-.18c-1.35-2.02-3.53-3.09-6.3-3.09-4.64,0-8.13,3.48-8.13,8.11s3.49,8.11,8.13,8.11c2.77,0,5.09-1.16,6.53-3.27l.13-.19-1.64-1.14-.13.19Z"/>
    <polygon class="cls-2" points="82.37 73.3 89.27 73.3 89.27 71.42 82.37 71.42 82.37 66.37 90.11 66.37 90.11 64.47 80.28 64.47 80.28 80.32 90.43 80.32 90.43 78.41 82.37 78.41 82.37 73.3"/>
    <path class="cls-2" d="m98.33,66.37h2.67c2.45,0,3.65.99,3.65,3.03s-1.23,3.01-3.65,3.01h-2.67v-6.04Zm8.47,3.03c0-3.09-2.14-4.94-5.71-4.94h-4.85v15.85h2.09v-6.04h2.58c.2,0,.4,0,.6-.01l3.53,6.06h2.46l-3.82-6.44c2.02-.72,3.13-2.3,3.13-4.47"/>
    <polygon class="cls-2" points="111.01 66.37 115.74 66.37 115.74 80.32 117.83 80.32 117.83 66.37 122.56 66.37 122.56 64.47 111.01 64.47 111.01 66.37"/>
    <polygon class="cls-2" points="144.07 71.5 136.28 71.5 136.28 64.32 134.19 64.32 134.19 80.17 136.28 80.17 136.28 73.43 144.07 73.43 144.07 80.17 146.15 80.17 146.15 64.32 144.07 64.32 144.07 71.5"/>
    <path class="cls-2" d="m160.82,74.85h-5.26l2.23-5.59c.14-.34.28-.75.39-1.1.11.37.26.8.38,1.11l2.25,5.57Zm-2.92-10.69l-6.57,16.01h2.1l1.38-3.46h6.76l1.4,3.46h2.22l-6.71-16.01h-.58Z"/>
    <polygon class="cls-2" points="172.47 64.32 170.38 64.32 170.38 80.17 179.74 80.17 179.74 78.27 172.47 78.27 172.47 64.32"/>
    <polygon class="cls-2" points="187.23 78.27 187.23 64.32 185.14 64.32 185.14 80.17 194.5 80.17 194.5 78.27 187.23 78.27"/>
  </g>
  <g>
    <g>
      <path class="cls-2" d="m83.33,13.9c-3.49-.37-6.96-.45-10.39-.17-11.96.99-22.19,4.91-31.21,8.36-6.06,2.32-11.74,4.5-17.38,5.62-5.89,3.5-12.19,5.48-18.73,3.59,13.18,4.52,25,0,37.44-4.77,9.22-3.53,18.74-7.18,30.18-8.13,4.54-.38,9.2-.05,13.92.75-1.27-1.85-2.54-3.61-3.84-5.24Z"/>
      <path class="cls-2" d="m119.62,24.24c-10.87-4.07-22-8.23-32.93-9.91,1.29,1.74,2.55,3.56,3.81,5.44,9.2,1.95,18.61,5.47,27.83,8.91,14.06,5.27,28.38,10.63,42.19,10.63,4.54,0,9.03-.58,13.43-1.94,3.82-2.99,7.14-5.99,9.76-8.65l5.69-5.87c-20.68,19.75-44.56,10.83-69.78,1.39Z"/>
    </g>
    <path class="cls-3" d="m190.78,27.58c-1.7,1.55-3.52,3.16-5.27,4.8-11.32,10.48-30.81,24.12-51.26,24.12-22.43,0-33.39-16.65-43.05-31.33-1.37-2.08-2.7-4.1-4.03-6.03-1.27-1.85-2.54-3.61-3.84-5.24-5.06-6.38-10.49-10.8-17.82-10.8h-.03c-10.96.02-19.44,7.3-27.64,14.34-4.16,3.57-8.69,7.42-13.48,10.27-5.89,3.5-12.19,5.48-18.73,3.59-1.27-.37-2.55-.88-3.83-1.56-1.21-.6-1.51-2.03-1.14-3.07.38-1.02,1.31-1.75,2.57-1.33,13.2,5.51,22.97-1.19,33.23-9.99C44.95,8.06,53.75.52,65.48.5h.03c9,0,15.36,5.98,21.18,13.84,1.29,1.74,2.55,3.56,3.81,5.44.85,1.26,1.69,2.55,2.54,3.84,9.34,14.2,19.93,30.29,41.21,30.29,14.46,0,29.03-8.18,39.7-16.53,3.82-2.99,7.14-5.99,9.76-8.65l5.69-5.87s.52-.51,2.46-2.55c.94-1.01,2.31-1.08,3.08-.11.76.97.77,2.45-.1,3.37,0,0-1.61,1.7-1.8,1.88-2.24,2.24-5,4.54-7.58,6.94"/>
  </g>
</svg>