<svg width="2000" height="1783" viewBox="0 0 2000 1783" fill="none" xmlns="http://www.w3.org/2000/svg">
<g opacity="0.56">
<g opacity="0.15" clip-path="url(#clip0_274_96)">
<path d="M1951.35 1359.03C1923.06 1381.82 1892.8 1405.44 1863.47 1429.37C1674.76 1582.98 1349.99 1783 1009.05 1783C635.159 1783 452.566 1538.96 291.527 1323.61C268.729 1293.16 246.552 1263.53 224.375 1235.25C203.132 1208.22 181.991 1182.32 160.437 1158.39C76.083 1064.75 -14.2811 1000.02 -136.667 1000.02H-137.081C-319.778 1000.33 -461.128 1107.02 -597.814 1210.19C-667.141 1262.49 -742.583 1318.95 -822.584 1360.69C-920.721 1411.97 -1025.7 1440.97 -1134.71 1413.31C-1155.85 1407.93 -1177.2 1400.47 -1198.55 1390.52C-1218.76 1381.72 -1223.73 1360.69 -1217.51 1345.57C-1211.19 1330.55 -1195.65 1319.88 -1174.61 1326.09C-954.711 1406.89 -791.703 1308.69 -620.819 1179.63C-479.055 1072.83 -332.525 962.311 -137.081 962H-136.563C13.3877 962 119.4 1049.73 216.5 1164.82C237.951 1190.3 258.988 1217.02 279.921 1244.57C294.014 1263.12 308.107 1281.86 322.305 1300.82C477.955 1509.02 654.434 1744.98 1009.15 1744.98C1250.19 1744.98 1493 1625.04 1670.72 1502.7C1734.35 1458.89 1789.69 1414.87 1833.52 1375.81L1928.34 1289.84C1928.34 1289.84 1937.05 1282.38 1969.38 1252.45C1985.03 1237.63 2007.93 1236.6 2020.67 1250.89C2033.32 1265.08 2033.42 1286.84 2018.91 1300.3C2018.91 1300.3 1992.07 1325.27 1988.96 1327.86C1951.66 1360.69 1905.65 1394.46 1862.64 1429.57" fill="#EC2127"/>
</g>
<g opacity="0.1" clip-path="url(#clip1_274_96)">
<path d="M925.12 466.067C887.185 448.358 848.597 433.567 809.126 422.556C671.291 384.129 542.543 381.656 429.086 379.392C352.845 377.955 281.248 376.531 213.967 364.837C135.453 375.662 57.7162 369.828 -9.04509 324.839C122.94 422.617 271.621 425.545 428.3 428.585C544.291 430.813 664.268 433.132 796.018 469.849C848.312 484.437 899.453 506.411 949.71 533.267C941.934 509.915 933.952 487.355 925.215 466.022L925.12 466.067Z" fill="#666666"/>
<path d="M1295.82 714.492C1188.17 630.57 1077.95 544.618 961.174 483.967C969.465 506.322 977.177 529.415 984.618 553.041C1081.04 609.381 1174.2 682.042 1265.47 753.158C1404.67 861.797 1546.43 972.535 1701.56 1028.2C1752.53 1046.49 1804.99 1058.85 1859.23 1063.19C1912.69 1049.04 1960.62 1032.76 1999.59 1017.04L2084.26 982.032C1781.95 1093.84 1545.49 909.487 1295.77 714.632L1295.82 714.492Z" fill="#666666"/>
<path d="M2083.12 1034.17C2058.55 1042.69 2032.46 1051.29 2006.91 1060.32C1842.64 1118.21 1575.47 1174.47 1345.77 1092.06C1093.87 1001.67 1029.86 793.091 973.424 609.055C965.428 583.024 957.649 557.701 949.545 533.286C941.769 509.934 933.787 487.374 925.05 466.041C890.858 382.553 845.63 317.086 763.175 287.501L762.896 287.401C639.733 243.445 518.707 281.165 401.675 317.639C342.32 336.126 277.844 355.928 213.852 364.716C135.339 375.542 57.6015 369.708 -9.15979 324.718C-22.1003 315.978 -34.6795 305.792 -46.6577 293.931C-58.1434 283.114 -56.4108 267.743 -48.5654 259.056C-40.6752 250.463 -27.6231 247.032 -14.9528 256.305C113.666 363.905 247.23 337.144 393.563 291.488C514.893 253.798 640.336 214.748 772.087 261.785L772.436 261.911C873.462 298.16 923.673 382.904 961.268 483.921C969.56 506.276 977.272 529.369 984.713 552.995C989.726 568.896 994.688 584.936 999.67 601.14C1054.2 779.057 1116.05 980.715 1355.03 1066.47C1517.43 1124.73 1710.01 1102.61 1859.32 1063.14C1912.79 1049 1960.71 1032.71 1999.69 1017L2084.35 981.987C2084.35 981.987 2092.02 979.066 2121.04 966.71C2135.17 960.512 2150.85 965.351 2155.98 978.064C2161.06 990.682 2155.88 1005.36 2142.85 1010.93C2142.85 1010.93 2118.73 1021.26 2116.01 1022.26C2082.93 1035.36 2043.77 1046.99 2006.31 1060.26" fill="#666666"/>
</g>
</g>
<defs>
<clipPath id="clip0_274_96">
<rect width="3250" height="821" fill="white" transform="translate(-1220 962)"/>
</clipPath>
<clipPath id="clip1_274_96">
<rect width="2326.3" height="587.737" fill="white" transform="translate(42.4956) rotate(19.7386)"/>
</clipPath>
</defs>
</svg>
