<svg width="2000" height="1339" viewBox="0 0 2000 1339" fill="none" xmlns="http://www.w3.org/2000/svg">
<g opacity="0.1" clip-path="url(#clip0_275_247)">
<path d="M940.12 466.067C902.185 448.358 863.597 433.567 824.126 422.556C686.291 384.129 557.543 381.656 444.086 379.392C367.845 377.955 296.248 376.531 228.967 364.837C150.453 375.662 72.7162 369.828 5.95491 324.839C137.94 422.617 286.621 425.545 443.3 428.585C559.291 430.813 679.268 433.132 811.018 469.849C863.312 484.437 914.453 506.411 964.71 533.267C956.934 509.915 948.952 487.355 940.215 466.022L940.12 466.067Z" fill="#666666"/>
<path d="M1310.82 714.492C1203.17 630.57 1092.95 544.618 976.174 483.967C984.465 506.322 992.177 529.415 999.618 553.041C1096.04 609.381 1189.2 682.042 1280.47 753.158C1419.67 861.797 1561.43 972.535 1716.56 1028.2C1767.53 1046.49 1819.99 1058.85 1874.23 1063.19C1927.69 1049.04 1975.62 1032.76 2014.59 1017.04L2099.26 982.032C1796.95 1093.84 1560.49 909.487 1310.77 714.632L1310.82 714.492Z" fill="#666666"/>
<path d="M2098.12 1034.17C2073.55 1042.69 2047.46 1051.29 2021.91 1060.32C1857.64 1118.21 1590.47 1174.47 1360.77 1092.06C1108.87 1001.67 1044.86 793.091 988.424 609.055C980.428 583.024 972.649 557.701 964.545 533.286C956.769 509.934 948.787 487.374 940.05 466.041C905.858 382.553 860.63 317.086 778.175 287.501L777.896 287.401C654.733 243.445 533.707 281.165 416.675 317.639C357.32 336.126 292.844 355.928 228.852 364.716C150.339 375.542 72.6015 369.708 5.84021 324.718C-7.10027 315.978 -19.6795 305.792 -31.6577 293.931C-43.1434 283.114 -41.4108 267.743 -33.5654 259.056C-25.6752 250.463 -12.6231 247.032 0.0472365 256.305C128.666 363.905 262.23 337.144 408.563 291.488C529.893 253.798 655.336 214.748 787.087 261.785L787.436 261.911C888.462 298.16 938.673 382.904 976.268 483.921C984.56 506.276 992.272 529.369 999.713 552.995C1004.73 568.896 1009.69 584.936 1014.67 601.14C1069.2 779.057 1131.05 980.715 1370.03 1066.47C1532.43 1124.73 1725.01 1102.61 1874.32 1063.14C1927.79 1049 1975.71 1032.71 2014.69 1017L2099.35 981.987C2099.35 981.987 2107.02 979.066 2136.04 966.71C2150.17 960.512 2165.85 965.351 2170.98 978.064C2176.06 990.682 2170.88 1005.36 2157.85 1010.93C2157.85 1010.93 2133.73 1021.26 2131.01 1022.26C2097.93 1035.36 2058.77 1046.99 2021.31 1060.26" fill="#666666"/>
</g>
<defs>
<clipPath id="clip0_275_247">
<rect width="2326.3" height="587.737" fill="white" transform="translate(57.4956) rotate(19.7386)"/>
</clipPath>
</defs>
</svg>
